<svg xmlns="http://www.w3.org/2000/svg" viewBox="0 0 60 60"><defs><style>.cls-1{fill:#fff;}</style></defs><g id="圖層_5" data-name="圖層 5"><rect class="cls-1" x="40.67" y="14.14" width="2.33" height="8.98"/><polygon class="cls-1" points="43 58.09 1.35 58.09 1.35 2.02 30.88 2.02 30.88 4.34 3.67 4.34 3.67 55.76 40.67 55.76 40.67 47.53 43 47.53 43 58.09"/><path class="cls-1" d="M35.05,7.53,37.49,10H35.05V7.53M32.73,1.91V12.29H43.11L32.73,1.91Z"/><rect class="cls-1" x="7.77" y="13.6" width="11.3" height="2.32"/><rect class="cls-1" x="7.57" y="18.51" width="26.82" height="2.32"/><rect class="cls-1" x="7.57" y="23.41" width="26.82" height="2.32"/><rect class="cls-1" x="7.57" y="28.32" width="26.82" height="2.33"/><rect class="cls-1" x="7.57" y="33.22" width="17.36" height="2.33"/><polygon class="cls-1" points="23.8 53.91 26.85 43.57 28.05 42.37 29.7 44.01 28.91 44.79 27.24 50.47 32.92 48.79 33.7 48.02 35.34 49.66 34.14 50.86 23.8 53.91"/><path class="cls-1" d="M45,28.61l4.08,4.07L34.6,47.19l-4.07-4.08L45,28.61m0-3.29L27.24,43.11l7.36,7.37,17.79-17.8L45,25.32Z"/><rect class="cls-1" x="29.22" y="36.23" width="22.21" height="2.32" transform="translate(-14.63 39.47) rotate(-45)"/><path class="cls-1" d="M56.52,28.49l-1.64-1.65,1.28-1.28-4-4-1.28,1.29-1.65-1.65,1.61-1.6a1.78,1.78,0,0,1,1.48-.51,2.14,2.14,0,0,1,1.29.63L58,24.11a2,2,0,0,1,.12,2.78Z"/><polygon class="cls-1" points="51.48 35.24 49.84 33.59 53.18 30.25 47.46 24.53 44.12 27.88 42.48 26.23 47.46 21.24 56.47 30.25 51.48 35.24"/></g></svg>