<svg xmlns="http://www.w3.org/2000/svg" viewBox="0 0 60 60"><defs><style>.cls-1{fill:#fff;}</style></defs><g id="圖層_5" data-name="圖層 5"><polygon class="cls-1" points="52.74 54.31 44.9 45.15 23.03 45.15 23.03 40.42 25.2 40.42 25.2 42.76 45.84 42.76 50.56 48.27 50.56 42.76 54.73 42.76 54.73 17.52 51.52 17.52 51.52 15.13 56.9 15.13 56.9 45.15 52.74 45.15 52.74 54.31"/><path class="cls-1" d="M10.1,49.54V38.25h-7V5.07H49.47V38.25H20.78ZM5.27,35.86h7v8.06l7.63-8.06H47.3V7.46h-42Z"/><rect class="cls-1" x="12.82" y="14.49" width="26.93" height="2.39"/><rect class="cls-1" x="12.82" y="20.16" width="26.93" height="2.39"/><rect class="cls-1" x="12.82" y="25.83" width="26.93" height="2.39"/></g></svg>