<svg xmlns="http://www.w3.org/2000/svg" viewBox="0 0 1109.09 660.37"><defs><style>.cls-1{fill:#ffdfd2;}.cls-2{fill:#ccbdad;}.cls-3{fill:#b49989;}.cls-4{fill:#e5b0ae;}.cls-5{fill:#d7d1c4;}.cls-6{fill:#ca9d9c;}.cls-7{fill:#e2918f;}.cls-8{fill:#e5b39e;}.cls-9{fill:#1d1c2e;}.cls-10{fill:#fff;}.cls-11{fill:#1a4172;}.cls-12{fill:#432d4e;}.cls-13{fill:#cd6868;}.cls-14{fill:#0d0d25;}.cls-15{fill:#dc7167;}.cls-16{fill:#d48b57;}.cls-17{fill:#4c7c89;}.cls-18{fill:#e7ecfb;}.cls-19{fill:#0e0e35;}.cls-20{fill:#24153b;}.cls-21{fill:#121054;}.cls-22{fill:#f9f9fb;}.cls-23{fill:#84667f;}.cls-24{fill:#dee5fc;}.cls-25{fill:#121212;}.cls-26{fill:#997686;}</style></defs><g id="圖層_5" data-name="圖層 5"><path class="cls-1" d="M182.2,573c-20.21-7.61-38.68-19.1-54.37-36.21-18.5-20.18-35.08-42.37-47.76-66.68C49.64,411.7,48.86,346.27,84.54,289.84c83.3-131.73,232.62-98.16,310.93-43.48C428.82,269.65,525.39,307,607.34,170,708.59.63,1091,37,1020.41,324.68c-13.53,55.2,12.52,91,52.28,125.46,28.46,24.64,45.94,59.13,30.85,96.16-13.8,33.86-43.32,63.19-78.84,73.05-28.37,7.87-58.49,4.19-87.72.62-144.58-17.66-293.44-39.26-439.26-39.26-55.24-.28-110.62,4.21-165.62,4.36C281.54,585.21,230.78,591.25,182.2,573Z"/><path class="cls-2" d="M520.52,606.78C553.84,563.83,636,446.72,590.38,389.21c-17.39-21.93-56.18-13.24-63.15,72-4.9,59.77-27.18,119.81-37.76,145.54Z"/><path class="cls-3" d="M504.83,606.78c21.59-36.67,36.59-75.49,45.93-104,12.59-38.43,18-67,18-67.29a1.88,1.88,0,0,0-3.7-.68c-.05.28-5.37,28.66-17.9,66.86-9.45,28.81-24.69,68.19-46.71,105.12Z"/><path class="cls-4" d="M740.83,360.36c-13.11-38.33-70.24-45.26-121,67.7-35,77.82-93,147.87-120.55,178.72h66C641,554.87,771.45,449.9,740.83,360.36Z"/><path class="cls-2" d="M688,409.32a2.73,2.73,0,0,0-3.72,1c-.21.37-21.21,36.5-56.79,82.56-25.3,32.75-62.17,75.81-106.45,113.91h8.29c42.54-37.37,78-78.85,102.52-110.66,35.78-46.33,56.93-82.72,57.14-83.09A2.72,2.72,0,0,0,688,409.32Z"/><path class="cls-2" d="M88.27,586.31a52.66,52.66,0,0,0,4.42,22.36H165.9c18.67-17,24.13-44.86,11.76-67.52-5.5-10.08-13.85-18-26.52-19.5-39.68-4.72-11.81-34.73-26.39-58.71C108,435.32,78.85,446,68.58,424.19,54.29,393.86,12.32,378,8.07,414.65s28.67,49.54,16.68,75.65-4,53.23,20.9,58.15S89.11,555.6,88.27,586.31Z"/><path class="cls-5" d="M155.4,608.67,48.92,443.6a2.87,2.87,0,1,0-4.82,3.1l104.48,162Z"/><path class="cls-4" d="M105.49,489.84c25.16,18.76,44.72,31.16,27.42,65-9.1,17.79-8.94,38.71-2,53.81H231.41a68,68,0,0,0,25.43-56.59c-.78-14.19-5.88-27.49-19.24-35.92-41.79-26.43,5.34-45.09,1.84-79.64-4-39.81-42.23-43.41-42.07-73.25.21-41.5-38.21-81.6-62.5-42.92s5.6,70.63-21.71,93.39S80.33,471.08,105.49,489.84Z"/><path class="cls-5" d="M187.91,608.67h7.15l-30-234.2a3.55,3.55,0,0,0-7,.89Z"/><path class="cls-2" d="M373,595.82c-64.34-157.4-84.22-268.76-57.46-323.12a4.38,4.38,0,1,0-7.85-3.87c-16.1,32.7-16.61,83.79-1.51,151.87,11,49.68,30.28,108.47,57.37,175.12Z"/><path class="cls-4" d="M297.82,358.89s-34.67,11.62-52.71-50.14C245.11,308.75,303.23,306,297.82,358.89Z"/><path class="cls-4" d="M305.47,391.21s-13.52-34,47.14-55.42C352.61,335.79,358.56,393.67,305.47,391.21Z"/><path class="cls-4" d="M303.2,296.83s-24.08-27.52,26-68C329.16,228.87,354.07,281.44,303.2,296.83Z"/><path class="cls-4" d="M318.86,456.71s-28.7,22.66-66.56-29.36C252.3,427.35,306.07,405.13,318.86,456.71Z"/><path class="cls-4" d="M331.64,488.46s-19.2-31.12,36.84-62.74C368.48,425.72,384.36,481.7,331.64,488.46Z"/><path class="cls-4" d="M344.82,533.66s-28.26,23.2-67.11-28.09C277.71,505.57,331.05,482.33,344.82,533.66Z"/><path class="cls-6" d="M1010.49,613.32q16,1.56,32.18,2.8c6.57.5,13.42,1.09,19,4.77s9.53,11.45,7,18c-2.24,5.75-8.32,8.41-13.88,10.19-30.1,9.64-62,10.46-93.38,10.3-80.1-.39-160-6.68-240.08-9.39-74.63-2.53-148.48,4.41-222.88,4.41-57.21,0-113.11,6.94-171,5.87q-99.23-1.85-198.32-7.9c-18.8-1.15-39.53-3.35-52.43-18.12-3.24-3.72-5.92-8.19-10-10.81-4.85-3.12-11.84-3.93-13.88-9.6-6.32-17.51,68.23-17.82,78.37-18.54,34.81-2.45,69.66-4.22,104.51-5.64,87.53-3.59,175.15-4.95,262.74-4.95,95.9,0,191.83,1.58,287.65,6C861.9,594.25,935.3,606,1010.49,613.32Z"/><path class="cls-7" d="M353.56,360.81s5,10.68,5.93,14.94,5,7.68,2.88,9-7.05-5.46-7.05-5.46-2.23,8.59-2.52,11.34-2,7.52-4.06,7.46S349,385,349,385s-3,10.83-4.89,11.18-.07-14-.07-14-2.64,11.71-3.65,12.45-2-.53-2.07-4.9a42.28,42.28,0,0,1,1-8.86s-2.47,8.09-3.11,9-2.14,1.6-1.56-4.89,4.13-20.31,8.71-26.5Z"/><path class="cls-8" d="M477.3,46.29s-5.87-10.22-7.18-14.39-5.66-7.22-3.64-8.75S474,28,474,28s1.5-8.75,1.55-11.5,1.39-7.67,3.41-7.79.86,13.11.86,13.11,2.08-11,3.92-11.55S485,24.19,485,24.19s1.64-11.89,2.58-12.71,2,.35,2.47,4.7a40.93,40.93,0,0,1-.23,8.91s1.78-8.27,2.34-9.18,2-1.78,2,4.74-2.4,20.59-6.43,27.14Z"/><path class="cls-7" d="M402.32,573s-.86,25.45-1.08,25.81,1.69,3.63,1.69,3.63l7.95,1.83,7.48-3s.5-23.67,1.44-27.36S402.32,573,402.32,573Z"/><path class="cls-9" d="M418.36,601.29s-9.4,2.79-17-2.94c0,0-31.35,10-30.83,18.87,0,0-1.44,2.55,11.93,2.63s34.12.49,34.69.21S420.23,621.31,418.36,601.29Z"/><path class="cls-7" d="M512,573s.86,25.45,1.07,25.81-1.68,3.63-1.68,3.63l-8,1.83-7.49-3s-.49-23.67-1.44-27.36S512,573,512,573Z"/><path class="cls-9" d="M496,601.29s9.41,2.79,17-2.94c0,0,31.34,10,30.83,18.87,0,0,1.43,2.55-11.93,2.63s-34.13.49-34.7.21S494.11,621.31,496,601.29Z"/><polygon class="cls-10" points="431.11 156.01 399.12 174.69 394.73 196.61 419.5 318 473.52 309.74 452.76 186.56 431.11 156.01"/><path class="cls-11" d="M494.46,299.13s17.73,59.49,24.73,280.92l-31.31,6.71S451.2,392.05,448.52,389.62,426.2,586.76,426.2,586.76H392.27l-1.79-270.1Z"/><path class="cls-12" d="M431.11,156s35.27,108,39.73,189.67l40.18-3s-21.43-90-21.43-108.46,12.5-107.44,12.5-128.42-10.71-64.59-10.71-64.59l-20.32,4.91S484.53,124.83,431.11,156Z"/><path class="cls-12" d="M399.12,174.69s23.81,102.13,25,120.42,7,55.28,7,55.28L389,352.82l-4.17-72.14s-13.1,27.5-16.07,39.33-8.34,44.57-8.34,44.57h-23.8s-3.58-73.22,8.92-111.31S362.66,196.2,399.12,174.69Z"/><path class="cls-13" d="M424.93,118.54s.91-3.58,2.84-2.92c4.93,1.65,2.41,6.88.13,8.64Z"/><path class="cls-8" d="M422.05,107.53h0c-.1-.31-.19-.61-.3-.92a25.07,25.07,0,1,0-41.92,25.46c4.12,4.77,7.71,8.84,11.13,12.06a35.8,35.8,0,0,1,10.64,20.09l1,6c17.25,2.67,21.37-6.85,21.37-6.85l-3.38-10.54a2.77,2.77,0,0,1,1.58-3.41h0C439.83,142,424.89,115.66,422.05,107.53Z"/><path class="cls-14" d="M402,128.48a2.33,2.33,0,1,0-1.43,3A2.33,2.33,0,0,0,402,128.48Z"/><path class="cls-14" d="M420.22,117.71a2.34,2.34,0,1,0-1.44,3A2.34,2.34,0,0,0,420.22,117.71Z"/><path class="cls-14" d="M392.91,127.8a1.5,1.5,0,0,1-.73,0,1.36,1.36,0,0,1-1.06-1.61c.46-2.23,2.86-6.25,8.66-5.51a1.37,1.37,0,0,1-.35,2.71c-4.76-.61-5.6,3.19-5.63,3.35A1.38,1.38,0,0,1,392.91,127.8Z"/><path class="cls-14" d="M412.36,117.13a1.34,1.34,0,0,1-.72.05,1.36,1.36,0,0,1-1.06-1.61c.46-2.23,2.86-6.25,8.65-5.51a1.37,1.37,0,1,1-.34,2.71c-4.76-.61-5.6,3.19-5.64,3.35A1.35,1.35,0,0,1,412.36,117.13Z"/><polygon class="cls-15" points="372.84 125.53 384.86 139.3 388.86 136.94 384.22 115.38 372.84 125.53"/><path class="cls-7" d="M389.35,136.19a3.71,3.71,0,0,0-2.43-1c-1.86-.09-5,.2-6.29,2.87-1.89,3.92,6.65,9.59,11.1,3.74C391.73,141.78,392.8,139.55,389.35,136.19Z"/><path class="cls-13" d="M416.11,132.5a4.66,4.66,0,0,1-4.06,1.28.39.39,0,0,1-.3-.48.4.4,0,0,1,.48-.31,3.78,3.78,0,0,0,4.07-2.11,1.44,1.44,0,0,0,.27-.93c-.08-.27-.52-.5-1.12-.82a12,12,0,0,1-5.64-5.85.42.42,0,0,1,.19-.55.4.4,0,0,1,.54.18,11.15,11.15,0,0,0,5.29,5.51c.75.39,1.34.7,1.52,1.29a2.1,2.1,0,0,1-.33,1.56A5.53,5.53,0,0,1,416.11,132.5Z"/><path class="cls-10" d="M408.63,139.62s9.37-2,14.14-6.67c0,0,1,7.4-4,9.78S408.63,139.62,408.63,139.62Z"/><path class="cls-15" d="M415,99.67s4.24,1.2,10.09,15.27c0,0-4.44-16.42-6.83-17.56S415,99.67,415,99.67Z"/><path class="cls-15" d="M371.54,93.54c3.48-6.62,12.5-8.38,17.13-14.26A34.59,34.59,0,0,1,383.76,91l23.73-13.82a59,59,0,0,1-6.82,9.35,112.57,112.57,0,0,0,19.95-5.12c.91.85.81,2.31.63,3.55-.94,6.79-2.32,14.34-7.87,18.39a19.3,19.3,0,0,1-5.76,2.68c-8.05,2.49-17.57,2.74-23.17,9.05-2.59,2.92-4.62,11.3-9.35,11.34C370.9,126.51,360.75,114.1,371.54,93.54Z"/><polygon class="cls-15" points="423.97 170.97 423.97 179.83 419.35 181.99 412.66 177.52 416.82 170.97 423.97 170.97"/><polygon class="cls-10" points="401.14 173.51 402.07 167.09 416.43 169.45 422.4 158.48 425.5 159.29 427.09 172.02 417.49 171.79 412.66 179.46 401.14 173.51"/><polygon class="cls-15" points="423.97 179.83 458.64 283.21 450.31 311.3 428.58 290.47 419.06 180.5 423.97 179.83"/><path class="cls-7" d="M658.63,389.94s-5.5,9.47-6.73,13.34-5.28,6.69-3.41,8.12,7-4.48,7-4.48,1.36,8.14,1.4,10.7,1.27,7.13,3.14,7.25.84-12.18.84-12.18,1.89,10.27,3.6,10.75,1.23-12.94,1.23-12.94,1.48,11.05,2.35,11.82,1.89-.32,2.31-4.36a38.36,38.36,0,0,0-.18-8.28s1.63,7.69,2.14,8.54,1.85,1.66,1.85-4.4-2.14-19.13-5.86-25.24Z"/><path class="cls-8" d="M596,543s-5,64.71,1.84,71.59,17,13.31,17.9,17.44-29.83-.46-32.59-4.59-2.29-11-5-30.29S571.17,543,571.17,543Z"/><path class="cls-14" d="M615.69,632.05c-.63-2.81-5.5-6.68-10.72-11-1.15,8.84-18.5-.22-24.46-3.62.6,5,1.16,7.92,2.59,10.07C585.86,631.59,616.61,636.18,615.69,632.05Z"/><path class="cls-8" d="M639.78,543s-5,64.71,1.83,71.59,17,13.31,17.9,17.44-29.83-.46-32.58-4.59-2.3-11-5-30.29S615,543,615,543Z"/><path class="cls-14" d="M659.51,632.05c-.63-2.81-5.5-6.68-10.72-11-1.15,8.84-18.5-.22-24.46-3.62.6,5,1.16,7.92,2.6,10.07C629.68,631.59,660.43,636.18,659.51,632.05Z"/><path class="cls-11" d="M583.81,158.88s22.81-10,34.17,13,17,49.81,10.35,61.19-28.82,8-28.82,8-26.62,5.42-37.1-6S556.86,165.19,583.81,158.88Z"/><polygon class="cls-12" points="640.64 405.08 649.21 563.28 559.03 566.22 555.66 405.08 563.5 374.72 609.05 365.41 640.64 405.08"/><path class="cls-16" d="M552.72,248.68,585,235.42l20-.22s29.29,13.48,32.23,16.74,32.14,130.88,37,137.09c0,0-6.39,7.61-20.76,7.61,0,0-9.75-30.41-13.34-50l7.18,70.2s-44.08,12.08-68.89,2.94l-9.8-35.59-3.26,35.26a36.32,36.32,0,0,1-12.74,1Z"/><rect class="cls-17" x="589.4" y="288.85" width="51.18" height="66.24" transform="translate(-62.18 169.26) rotate(-14.93)"/><path class="cls-18" d="M585.39,300.76,580.66,302a.67.67,0,0,1-.83-.48.67.67,0,0,1,.48-.83l4.73-1.26a.67.67,0,0,1,.83.48A.68.68,0,0,1,585.39,300.76Z"/><path class="cls-18" d="M587.76,309.64,583,310.9a.68.68,0,1,1-.36-1.31l4.74-1.26a.68.68,0,0,1,.35,1.31Z"/><path class="cls-18" d="M589.8,317.29l-4.74,1.26a.68.68,0,0,1-.83-.48.69.69,0,0,1,.48-.83l4.74-1.26a.68.68,0,0,1,.35,1.31Z"/><path class="cls-18" d="M591.94,325.34l-4.73,1.26a.67.67,0,0,1-.83-.48.68.68,0,0,1,.48-.84l4.73-1.26a.68.68,0,0,1,.35,1.32Z"/><path class="cls-18" d="M594.09,333.38l-4.74,1.26a.67.67,0,0,1-.83-.48.68.68,0,0,1,.48-.83l4.74-1.26a.68.68,0,0,1,.35,1.31Z"/><path class="cls-18" d="M596.23,341.43l-4.73,1.26a.67.67,0,0,1-.83-.48.66.66,0,0,1,.48-.83l4.73-1.27a.68.68,0,0,1,.35,1.32Z"/><path class="cls-18" d="M599,351.92l-4.74,1.26a.68.68,0,1,1-.35-1.31l4.74-1.27a.68.68,0,0,1,.35,1.32Z"/><path class="cls-8" d="M612.12,322s7-9.82,10.33-12.8,4.32-8.34,6.59-7.11-1.32,9-1.32,9,8.78-2.33,11.37-3.46,7.73-2,8.7-.13S636,313.87,636,313.87s6.36-1.92,7.62-.42-7.63,6.25-7.63,6.25,6.56-2.46,7.72-1.93.54,2-3.33,4.3-3.18,2.5-3.18,2.5,3.68-2,4.77-1.86,1.47,2.33-4.6,5.08-13.54,5.64-21.35,4.67Z"/><path class="cls-16" d="M552.72,248.68c-16.33,12.08-50.28,79.34-10.45,99.91s78.37-11.42,78.37-11.42l-9.8-18.29s-42.77,12.41-49.3-1-.33-26.45-.33-26.45-7.51-39.18-8.49-42.77Z"/><path class="cls-13" d="M615.41,196.49s1.81-3,3.41-1.91c4.08,2.88,0,7.14-2.57,8.13Z"/><path class="cls-8" d="M589,158.86A24.17,24.17,0,0,0,567.6,182.6a23.92,23.92,0,0,0,2.56,11c3.71,8.22,6.76,14.85,10.4,19.6a24,24,0,0,1,5,16.83l-.59,6.1c14.32,6.35,20.12-.93,20.12-.93l-.65-14h0c15.06-2.51,11.75-30.35,11.37-38.61h0c0-.31,0-.63,0-.94A24.06,24.06,0,0,0,589,158.86Z"/><path class="cls-19" d="M609.66,193.93a2.1,2.1,0,1,0-2.21,2A2.11,2.11,0,0,0,609.66,193.93Z"/><path class="cls-19" d="M590.18,197.53a2.1,2.1,0,0,0-4.2-.21,2.1,2.1,0,1,0,4.2.21Z"/><path class="cls-13" d="M607.56,209.33s-1.91-1.13-2.95-.72a3.14,3.14,0,0,0-1.49,1.75,2.44,2.44,0,0,0-2.07-1.11,30.2,30.2,0,0,0-4.85,1.48s3.94,5.19,7.72,3.83a5.28,5.28,0,0,0,3.6-5Z"/><path class="cls-20" d="M604.15,212c-4.36,1.39-9-1.45-9.09-1.49a.29.29,0,0,1-.09-.41.28.28,0,0,1,.4-.09c.31.19,7.59,4.62,12.11-1.08a.29.29,0,0,1,.41,0,.3.3,0,0,1,.05.42A7.9,7.9,0,0,1,604.15,212Z"/><path class="cls-19" d="M584.67,194.38a.84.84,0,0,1-.66-.32.86.86,0,0,1,.12-1.23,10.48,10.48,0,0,1,6.7-2,.88.88,0,0,1,.83.92.89.89,0,0,1-.91.83,8.88,8.88,0,0,0-5.52,1.64A.84.84,0,0,1,584.67,194.38Z"/><path class="cls-19" d="M605.87,189.76a.85.85,0,0,1-.6-.43.87.87,0,0,1,.34-1.19,10.37,10.37,0,0,1,7-.81.88.88,0,0,1-.4,1.71,8.62,8.62,0,0,0-5.71.63A.88.88,0,0,1,605.87,189.76Z"/><path class="cls-13" d="M601.54,204.63a3.74,3.74,0,0,0,3.23-3.47.74.74,0,0,0-.19-.51c-2.35-2.61-2.31-6.6-2.31-6.64a.74.74,0,0,0-1.47,0,12.41,12.41,0,0,0,2.46,7.4c-.11.58-.65,1.91-3,1.9a.74.74,0,0,0,0,1.47A6.46,6.46,0,0,0,601.54,204.63Z"/><path class="cls-11" d="M589.62,173.53s9.44,7.07,17.61,13.53,6,32.16,6,32.16l8.77-22s-3.09-44.53-33.35-39.77-22.08,36.67-17.13,43,5.18,1.49,5.18,1.49S588.77,179.39,589.62,173.53Z"/><path class="cls-7" d="M577.81,200a3.57,3.57,0,0,0-1.95-1.61c-1.69-.59-4.65-1.19-6.58.92-2.81,3.09,3.49,10.65,9.19,6.48C578.47,205.79,580.07,204,577.81,200Z"/><path class="cls-19" d="M578.72,325.46c-6.44,0-11.46-1.52-15-4.56a15.32,15.32,0,0,1-5.14-11.33.3.3,0,0,1,.33-.31.32.32,0,0,1,.3.33,14.75,14.75,0,0,0,4.93,10.84c5.12,4.41,13.59,5.5,25.17,3.26a.32.32,0,1,1,.12.62A57.06,57.06,0,0,1,578.72,325.46Z"/><path class="cls-19" d="M573,355.45a93.43,93.43,0,0,1-20.34-2.29.32.32,0,0,1-.23-.39.32.32,0,0,1,.39-.23c.25.07,25.65,6.34,43.2-2.24a.31.31,0,0,1,.42.14.33.33,0,0,1-.14.43C589.06,354.4,580.55,355.45,573,355.45Z"/><path class="cls-21" d="M708.72,239.09c-.94,6.23,5.59,12.75,2.48,18.25-.69,1.22-1.79,2.17-2.39,3.44-1.33,2.78.28,6.31,2.93,7.89s6,1.56,9,.9,5.86-1.91,8.84-2.67c6.7-1.7,13.74-.87,20.64-1s14.15-1.19,20.95.53c7.83,2,14.23,7.44,21.15,11.62a71.41,71.41,0,0,0,22.92,8.9c4.22.85,8.66,1.3,12.76,0,8.19-2.55,12.84-11.75,11.22-20a20.82,20.82,0,0,0-7.35-11.87c-3.26-2.69-7.78-4.21-9.91-8.1-3-5.45.66-12.14.21-18.33-.37-5.22-3.83-10.07-8.11-12.89-4-2.63-9.33-3.86-11.89-8.26-2.78-4.78-.58-10.3-.31-15.38.37-7.28-3.22-14.42-8.61-19.31a32.52,32.52,0,0,0-5.34-3.9c-12.75-7.47-31.16-7.23-38.77,7.52-2.33,4.52-3.19,9.88-6.58,13.68-3.67,4.12-9.89,5.83-12.41,10.75-3.16,6.18,1.18,14.21-1.86,20.45-2,4.08-6.5,6.14-10.54,8.2S709.4,234.6,708.72,239.09Z"/><path class="cls-8" d="M744.83,576.77s4.34,35.68,1.13,40.08c-1.83,2.51-43.68,12.95-45.65,7.42s29.31-17.7,30.28-28.5A67.16,67.16,0,0,0,729,575.24Z"/><path class="cls-19" d="M747.06,602.74c-20.23,14-28,11.25-30.88,8-8.3,5.59-16.91,10.5-15.84,13.48,2,5.53,43.81-4.91,45.64-7.42C747.16,615.24,747.32,609.44,747.06,602.74Z"/><path class="cls-8" d="M806.49,577.11s4.35,35.69,1.13,40.09c-1.83,2.51-43.67,12.94-45.64,7.42s29.3-17.71,30.28-28.51a67.31,67.31,0,0,0-1.57-20.52Z"/><path class="cls-19" d="M808.72,603.08c-20.23,14-28,11.26-30.87,8-8.31,5.59-16.91,10.5-15.85,13.48,2,5.53,43.81-4.9,45.64-7.42C808.82,615.59,809,609.79,808.72,603.08Z"/><path class="cls-13" d="M748.11,196.45s-1.48-3-3.08-2.07c-4.08,2.4-.56,6.74,1.8,7.88Z"/><path class="cls-8" d="M775.8,165.78a22.82,22.82,0,0,1,15,34.28c-4.14,7.48-7.55,13.49-11.35,17.7a22.66,22.66,0,0,0-6,15.5l.08,5.81c-14,4.88-18.93-2.45-18.93-2.45l1.7-13.17h0c-14-3.54-8.71-29.57-7.71-37.34h0l.09-.88A22.84,22.84,0,0,1,775.8,165.78Z"/><path class="cls-21" d="M774.44,189a98.74,98.74,0,0,1,6.4,10.09c2.11,3.65,4.29,7.52,4.32,11.74,4-2.32,6.92-6.17,9.44-10.08a21.5,21.5,0,0,0,2.88-5.77c.81-2.94.47-6.06.12-9.1-.45-3.91-1-8-3.17-11.26a18.83,18.83,0,0,0-5.77-5.21,32.11,32.11,0,0,0-17.24-5.25A23.11,23.11,0,0,0,755,171c-5.41,5.68-7,13.89-8.34,21.62,1.2-3.13,3.68-5.55,6.09-7.87a19.69,19.69,0,0,1,5.15-4c3.37-1.55,4.19-1,10.13-4C768.82,181.7,771.43,185,774.44,189Z"/><path class="cls-7" d="M783.1,205.51a3.37,3.37,0,0,1,2-1.37c1.65-.43,4.49-.76,6.14,1.38,2.42,3.14-4.13,9.79-9.18,5.41C782,210.93,780.66,209.14,783.1,205.51Z"/><path class="cls-19" d="M753.82,197.15a2,2,0,0,1,4,.13,2,2,0,1,1-4-.13Z"/><path class="cls-19" d="M771.94,201.66a2,2,0,1,1,1.92,2.05A2,2,0,0,1,771.94,201.66Z"/><path class="cls-21" d="M777.34,198.94a.9.9,0,0,0,.69-.16.84.84,0,0,0,.14-1.17,10,10,0,0,0-5.79-3.25.83.83,0,0,0-1,.68.85.85,0,0,0,.68,1,8.28,8.28,0,0,1,4.77,2.65A.8.8,0,0,0,777.34,198.94Z"/><path class="cls-21" d="M759.12,191.79a.83.83,0,0,0,0-1.56,9.88,9.88,0,0,0-6.63.37.83.83,0,0,0,.64,1.53,8.22,8.22,0,0,1,5.44-.33A.92.92,0,0,0,759.12,191.79Z"/><path class="cls-13" d="M760.33,208a3.54,3.54,0,0,1-2.77-3.53.69.69,0,0,1,.22-.47,10.31,10.31,0,0,0,2.69-6.09.69.69,0,0,1,.74-.65.69.69,0,0,1,.65.73,11.68,11.68,0,0,1-2.9,6.8c.07.56.47,1.85,2.7,2a.7.7,0,0,1,.64.75.69.69,0,0,1-.75.64A6.07,6.07,0,0,1,760.33,208Z"/><path class="cls-15" d="M753.9,211.24s2.79-1.68,3.77-1.28a3,3,0,0,1,1.41,1.7,2.31,2.31,0,0,1,2-1c1.24.12,3.53,3.78,3.53,3.78s-4.16,5-7.84,3.92-2.85-6.81-2.85-6.81Z"/><path class="cls-22" d="M753.9,211.24l10.7,3.17s-4.3,2.33-7.22,1.64S753.9,211.24,753.9,211.24Z"/><path class="cls-10" d="M777.72,239.42s1.8-8.86-4.1-8.95a18.74,18.74,0,0,1-18.12-.64s-4.3-.09-3.93,7.51c0,0-24.1,7.19-32.15,13.09s-22.88,42.79-22.5,70.75c.33,23.5.27,40.85,4.91,52.05l9.67-1.14s5.92-9.36,7.6-24.09c.93-8.11,3.09-23.82,3.09-23.82s-2,17.51,3.79,26.67l65.11,2s8.32-4.1,13.67-35c0,0,15.14-6.69,12.63-38.14C815.22,252.67,797.36,245.34,777.72,239.42Z"/><path class="cls-16" d="M726,350.85s-12.84,9.6-15.32,57.7,13.62,179,13.62,179l27.84,1.46s-3.33-175.31,1.09-175.84,33.31,175,33.31,175L812,586.64s2.78-174-20.88-233.77Z"/><rect class="cls-19" x="707.61" y="269.13" width="48.78" height="63.13" transform="translate(33.49 -71.23) rotate(5.7)"/><path class="cls-18" d="M712.71,271.84l-4.64-.46a.65.65,0,0,1,.13-1.29l4.64.46a.65.65,0,1,1-.13,1.29Z"/><path class="cls-18" d="M711.84,280.56l-4.64-.47a.64.64,0,0,1-.58-.71.65.65,0,0,1,.71-.58l4.64.47a.64.64,0,0,1,.58.71A.65.65,0,0,1,711.84,280.56Z"/><path class="cls-18" d="M711.09,288.07l-4.64-.47a.64.64,0,0,1-.58-.71.65.65,0,0,1,.71-.58l4.64.47a.64.64,0,0,1,.58.71A.65.65,0,0,1,711.09,288.07Z"/><path class="cls-18" d="M710.3,296l-4.64-.46a.65.65,0,0,1,.13-1.29l4.64.46a.65.65,0,0,1,.58.71A.64.64,0,0,1,710.3,296Z"/><path class="cls-18" d="M709.52,303.86l-4.65-.46a.65.65,0,0,1,.13-1.29l4.64.46a.64.64,0,0,1,.58.71A.63.63,0,0,1,709.52,303.86Z"/><path class="cls-18" d="M708.73,311.76l-4.65-.47a.65.65,0,0,1-.58-.71.66.66,0,0,1,.71-.58l4.65.47a.65.65,0,0,1,.58.71A.66.66,0,0,1,708.73,311.76Z"/><path class="cls-18" d="M707.7,322.05l-4.65-.46a.66.66,0,0,1-.58-.71.65.65,0,0,1,.71-.58l4.65.46a.66.66,0,0,1,.58.71A.64.64,0,0,1,707.7,322.05Z"/><rect class="cls-10" x="724.14" y="277.41" width="20.12" height="5.36" transform="translate(31.46 -71.56) rotate(5.7)"/><path class="cls-8" d="M733.6,297.61s-7.19-8.26-10.46-10.66-4.63-7.16-6.58-5.85,2,8,2,8S710.4,287.8,708,287s-7.16-1.1-7.88.64,11.26,4.72,11.26,4.72-7.12-1.27-7.45.91c-.26,1.75,8,4.37,8,4.37a58.77,58.77,0,0,0-6.73-1.19c-1.39.07-2.75,2,.94,3.67a30.66,30.66,0,0,0,5.12,2,30.71,30.71,0,0,0-5.13-.33c-1,.21-2.19,2.23,1.12,3.15,5.84,1.61,17.6,3.76,24.58,2.2Z"/><path class="cls-10" d="M804.76,317.9s-38.33,26.38-76.8-10.23l3.51-12.37s49.12,6.08,58-19.79Z"/><path class="cls-19" d="M774.86,327A66.88,66.88,0,0,1,754,323.54a.31.31,0,0,1-.2-.41.32.32,0,0,1,.41-.2c30.69,10.06,50.18-5.13,50.37-5.28a.32.32,0,1,1,.41.5C804.82,318.27,793.61,327,774.86,327Z"/><path class="cls-19" d="M751.54,296.12c-1.36,0-2.17-.05-2.22-.05a.33.33,0,0,1-.3-.35.32.32,0,0,1,.32-.3h0c.34,0,33.61,1.92,38.6-20a.32.32,0,1,1,.63.14C784.25,294.63,759.21,296.12,751.54,296.12Z"/><path class="cls-8" d="M711.5,372.09s7.73,7.76,9.89,11.19,6.82,5.13,5.37,7-7.88-2.55-7.88-2.55.75,8.21,1.37,10.7.58,7.22-1.21,7.81-3.9-11.57-3.9-11.57.78,10.42-.75,11.32-4.47-12.21-4.47-12.21,1.37,11.07.72,12-1.91.17-3.34-3.63a38.61,38.61,0,0,1-1.93-8.05s.38,7.85.1,8.8-1.37,2.07-2.91-3.78-2.78-19.05-.73-25.9Z"/><path class="cls-19" d="M296.58,201.76s-30.41-10-23.41-45.73c0,0,20.14-24.34,40.13-14.45s17.38,29.89,17,32.49S296.58,201.76,296.58,201.76Z"/><path class="cls-8" d="M300.86,143.75a25,25,0,0,0-21.38,25.14,24.71,24.71,0,0,0,3,11.29c4.06,8.39,7.4,15.14,11.3,19.95a24.77,24.77,0,0,1,5.61,17.24l-.43,6.32c15,6.16,20.75-1.53,20.75-1.53l-1.06-14.44h0c15.48-3,11.27-31.69,10.64-40.21h0c0-.32,0-.64,0-1A24.9,24.9,0,0,0,300.86,143.75Z"/><path class="cls-19" d="M325.08,179.35a2.17,2.17,0,1,0-2.22,2.12A2.16,2.16,0,0,0,325.08,179.35Z"/><path class="cls-19" d="M304.81,183.15a2.18,2.18,0,1,0-2.22,2.12A2.18,2.18,0,0,0,304.81,183.15Z"/><path class="cls-19" d="M298,177.39a.88.88,0,0,1-.73-.22.9.9,0,0,1-.09-1.27,10.84,10.84,0,0,1,6.51-3.2.89.89,0,0,1,1,.8.91.91,0,0,1-.79,1,9.06,9.06,0,0,0-5.35,2.6A1,1,0,0,1,298,177.39Z"/><path class="cls-19" d="M318.23,171a.87.87,0,0,1-.5-.57.9.9,0,0,1,.61-1.12,10.73,10.73,0,0,1,7.2.8.9.9,0,1,1-.79,1.62,9.07,9.07,0,0,0-5.91-.69A.91.91,0,0,1,318.23,171Z"/><path class="cls-13" d="M315.17,190.68A3.85,3.85,0,0,0,318.4,187a.73.73,0,0,0-.21-.52c-2.5-2.63-2.57-6.75-2.57-6.8a.76.76,0,0,0-1.52,0,12.75,12.75,0,0,0,2.76,7.57c-.11.61-.63,2-3.07,2a.76.76,0,0,0,0,1.52A6.74,6.74,0,0,0,315.17,190.68Z"/><path class="cls-19" d="M285.49,188.28c2.95,4,7.68-28,22.59-30.54S330,176.67,330,176.67s2.49-12.7-3.83-22.07-21.57-17.82-35.82-9S271.41,169,285.49,188.28Z"/><path class="cls-19" d="M284.51,147.68a11.45,11.45,0,1,0-9.32,13.24A11.45,11.45,0,0,0,284.51,147.68Z"/><path class="cls-19" d="M296,184.64a7.08,7.08,0,1,1,14-2.42h0a7.09,7.09,0,0,1-5.77,8.19,7.11,7.11,0,0,1-8.19-5.77Zm13.4-2.32a6.51,6.51,0,1,0-1.09,4.86,6.46,6.46,0,0,0,1.09-4.86Z"/><path class="cls-19" d="M316.51,181.09a7.08,7.08,0,1,1,14-2.42h0a7.09,7.09,0,0,1-5.77,8.19,7.11,7.11,0,0,1-8.19-5.77Zm5.87-7.63a6.51,6.51,0,1,0,7.53,5.31h0a6.47,6.47,0,0,0-2.67-4.21,6.4,6.4,0,0,0-3.74-1.19A7,7,0,0,0,322.38,173.46Z"/><path class="cls-19" d="M309.88,182.49c3.65-3.09,6.64-1.29,6.76-1.21l.3-.48s-3.45-2.11-7.42,1.25Z"/><rect class="cls-19" x="284.96" y="184.52" width="11.31" height="0.57" transform="translate(-17.76 31.46) rotate(-6.01)"/><path class="cls-7" d="M290.52,186.57a3.72,3.72,0,0,0-2.06-1.61c-1.76-.56-4.84-1.09-6.76,1.14-2.83,3.27,3.9,10.9,9.67,6.44C291.37,192.54,293,190.68,290.52,186.57Z"/><path class="cls-13" d="M322.49,192.47s-3.21-1.33-4.26-.83a3.26,3.26,0,0,0-1.43,1.93,2.54,2.54,0,0,0-2.24-1c-1.35.22-5.4,3.53-5.4,3.53s5.21,5,9.16,3.55,4.17-7.17,4.17-7.17Z"/><path class="cls-10" d="M309.16,196.09a131.78,131.78,0,0,0,13.33-3.62s-1.72,4.61-4.88,5.17S309.16,196.09,309.16,196.09Z"/><path class="cls-8" d="M330,579.64s-4.58,37.56-1.19,42.19c1.93,2.64,46,13.62,48,7.81S346,611,345,599.63A70.93,70.93,0,0,1,346.6,578Z"/><path class="cls-19" d="M327.62,607c21.29,14.77,29.46,11.85,32.5,8.47,8.74,5.89,17.79,11.06,16.68,14.19-2.08,5.82-46.12-5.16-48.05-7.81C327.52,620.13,327.34,614,327.62,607Z"/><path class="cls-8" d="M265.07,580s-4.58,37.56-1.19,42.19c1.93,2.65,46,13.63,48,7.81s-30.85-18.63-31.87-30a70.88,70.88,0,0,1,1.65-21.6Z"/><path class="cls-19" d="M262.72,607.34c21.29,14.76,29.46,11.84,32.5,8.47C304,621.69,313,626.86,311.9,630c-2.08,5.81-46.12-5.17-48-7.81C262.61,620.49,262.44,614.39,262.72,607.34Z"/><path class="cls-23" d="M295.34,224.57s-2.16-9.32,4.06-9.41a21.13,21.13,0,0,0,19.71-.65s4.15-.14,3.76,7.87c0,0,25.36,7.57,33.84,13.78s19.92,44.7,23.31,73.94c3.07,26.41-2.62,51.89-7.5,63.67l-10.15-1.49s-4.67-4.26-5.66-37.57c-.73-24.61-2.91-20.94-2.91-20.94s2.06,18.44-4,28.08L281.28,344s-8.76-4.32-14.4-36.81c0,0-15.93-7-13.28-40.14C255.88,238.52,274.68,230.8,295.34,224.57Z"/><path class="cls-19" d="M374.75,262.38,331.18,255a.76.76,0,0,0-.87.61L320,316.32a.75.75,0,0,0,.62.86l43.57,7.4a.75.75,0,0,0,.86-.62l10.3-60.71A.75.75,0,0,0,374.75,262.38Z"/><rect class="cls-24" x="343.75" y="256.58" width="18.48" height="3.93" transform="translate(48.22 -55.4) rotate(9.63)"/><path class="cls-24" d="M356.33,257.12a3.06,3.06,0,1,0-3.52,2.5A3.07,3.07,0,0,0,356.33,257.12Z"/><path class="cls-12" d="M349.81,341.85s13.51,10.11,16.13,60.73S351.6,591,351.6,591l-29.31,1.54s3.51-184.52-1.15-185.08-35.06,184.14-35.06,184.14L259.3,590s-2.93-183.12,22-246Z"/><path class="cls-8" d="M341.79,285.82s7.57-8.7,11-11.23,4.88-7.54,6.93-6.16-2.09,8.47-2.09,8.47,8.57-1.41,11.14-2.24,7.53-1.16,8.29.67-11.86,5-11.86,5,7.5-1.33,7.84.95c.28,1.85-8.38,4.6-8.38,4.6a62.6,62.6,0,0,1,7.08-1.25c1.47.07,2.9,2.07-1,3.87a32.69,32.69,0,0,1-5.39,2.13,33.58,33.58,0,0,1,5.4-.35c1,.23,2.31,2.35-1.18,3.32-6.14,1.69-18.53,4-25.87,2.32Z"/><path class="cls-23" d="M266.88,307.17s40.35,27.76,80.85-10.77l-3.71-13s-51.69,6.4-61-20.83Z"/><path class="cls-19" d="M298.36,316.71a70.26,70.26,0,0,0,21.95-3.65.3.3,0,0,0,.19-.36.29.29,0,0,0-.36-.19c-32.36,10.61-52.88-5.4-53.08-5.57a.3.3,0,0,0-.4.05.28.28,0,0,0,0,.4C266.86,307.51,278.64,316.71,298.36,316.71Z"/><path class="cls-19" d="M322.9,284.19c1.43,0,2.28-.05,2.34-.06a.28.28,0,0,0,.26-.3.28.28,0,0,0-.28-.27h0c-.35,0-35.43,2-40.68-21.08a.29.29,0,0,0-.34-.22.3.3,0,0,0-.22.34C288.52,282.63,314.84,284.19,322.9,284.19Z"/><path class="cls-8" d="M362.37,372.28s-8.36,7.93-10.75,11.47-7.32,5.19-5.86,7.18,8.38-2.44,8.38-2.44-1.05,8.62-1.77,11.21-.84,7.58,1,8.26,4.47-12,4.47-12-1.15,10.93.44,11.92,5.08-12.7,5.08-12.7-1.79,11.6-1.14,12.63,2,.24,3.64-3.72a41.14,41.14,0,0,0,2.27-8.41s-.64,8.25-.38,9.26,1.38,2.22,3.18-3.89,3.51-20,1.57-27.23Z"/><path class="cls-7" d="M821.67,406.4s5.8,10.41,7.06,14.63,5.62,7.39,3.56,8.9-7.5-5-7.5-5-1.63,8.83-1.72,11.61-1.52,7.73-3.56,7.83-.68-13.27-.68-13.27-2.26,11.14-4.12,11.63-1.09-14.1-1.09-14.1-1.82,12-2.78,12.81-2.05-.39-2.44-4.79a42.28,42.28,0,0,1,.36-9s-1.91,8.33-2.49,9.25-2,1.76-1.93-4.82,2.7-20.77,6.87-27.34Z"/><path class="cls-7" d="M845.94,599.75s.35,24.08.16,24.42,1.76,3.36,1.76,3.36l7.59,1.36,6.93-3.19s-.61-22.38.11-25.91S845.94,599.75,845.94,599.75Z"/><path class="cls-19" d="M862.38,625.7s-8.75,3.06-16.23-2c0,0-29.15,10.92-28.26,19.23,0,0-1.24,2.47,11.39,1.94s32.25-1.1,32.78-1.39S865.05,644.52,862.38,625.7Z"/><path class="cls-7" d="M935,599.75s.34,24.08.16,24.42,1.75,3.36,1.75,3.36l7.6,1.36,6.93-3.19s-.61-22.38.11-25.91S935,599.75,935,599.75Z"/><path class="cls-19" d="M951.42,625.7s-8.75,3.06-16.24-2c0,0-29.14,10.92-28.25,19.23,0,0-1.24,2.47,11.39,1.94s32.25-1.1,32.77-1.39S954.09,644.52,951.42,625.7Z"/><polygon class="cls-11" points="946.12 369.88 952.64 621.74 932.93 621.02 887.39 433.88 863.6 623.7 842.94 621.74 828.06 369.05 859.72 344.84 946.12 369.88"/><path class="cls-13" d="M863.16,189.72s-2-3.07-3.62-1.84c-4.1,3.15,0,7.26,2.67,8.19Z"/><path class="cls-8" d="M862.32,178.42h0c0-.32,0-.64,0-1A25,25,0,1,1,910,187.93c-2.35,5.82-4.41,10.8-6.59,14.94a35.63,35.63,0,0,0-3.55,22.34l1,6c-15.39,8.07-22.34.43-22.34.43l-.21-11a2.78,2.78,0,0,0-2.59-2.71h0C856.68,216.57,862.27,187,862.32,178.42Z"/><path class="cls-19" d="M889.1,190.85a2.32,2.32,0,1,1,2.31,2.34A2.32,2.32,0,0,1,889.1,190.85Z"/><path class="cls-19" d="M868.59,187.31a2.33,2.33,0,1,1,2.31,2.34A2.32,2.32,0,0,1,868.59,187.31Z"/><path class="cls-19" d="M896.29,188.11a1.43,1.43,0,0,0,.71-.19,1.35,1.35,0,0,0,.47-1.86c-1.15-1.95-4.71-5-9.93-2.4a1.37,1.37,0,1,0,1.21,2.45c4.28-2.11,6.3,1.19,6.38,1.33A1.34,1.34,0,0,0,896.29,188.11Z"/><path class="cls-19" d="M874.54,184.35a1.36,1.36,0,0,0,1.18-2.06c-1.16-1.95-4.72-5-9.93-2.39a1.36,1.36,0,0,0,1.2,2.44c4.28-2.11,6.3,1.19,6.38,1.34A1.4,1.4,0,0,0,874.54,184.35Z"/><polygon class="cls-19" points="914.46 179.51 907.59 196.35 903.05 195.41 900.47 173.62 914.46 179.51"/><path class="cls-7" d="M902.36,194.87a3.72,3.72,0,0,1,1.95-1.75c1.73-.68,4.77-1.42,6.85.68,3,3.09-3.17,11.17-9.24,7.1C901.92,200.9,900.19,199.15,902.36,194.87Z"/><path class="cls-13" d="M876,200a4.63,4.63,0,0,0,4.24-.1.39.39,0,0,0,.13-.55.41.41,0,0,0-.55-.14,3.79,3.79,0,0,1-4.52-.67,1.43,1.43,0,0,1-.55-.8c0-.27.32-.63.79-1.12a11.91,11.91,0,0,0,3.42-7.33.41.41,0,0,0-.35-.46.4.4,0,0,0-.45.35,11.06,11.06,0,0,1-3.21,6.89c-.58.61-1,1.09-1,1.7a2,2,0,0,0,.81,1.36A5.16,5.16,0,0,0,876,200Z"/><path class="cls-19" d="M866.39,168.76s-3.6,2.49-4.57,17.64c0,0-1.12-16.9.77-18.74S866.39,168.76,866.39,168.76Z"/><path class="cls-10" d="M902.18,227.53H875.81l-10.23,44.21v84.83s24.22,11.73,56.1-3.61l-9.29-99.26Z"/><path class="cls-12" d="M902.18,227.53S942,244.37,949.81,255.2,981.09,313,970.26,408.61H948.83l-.53-9.93-39.7,3.91Z"/><path class="cls-12" d="M875.81,227.53S836,244.37,828.18,255.2,796.9,313,807.73,408.61h22.43l-.47-9.93,39.7,3.91Z"/><path class="cls-25" d="M948.19,399.79a.71.71,0,0,1-.7-.65c0-.79-5.11-78.93-15.79-112.75A.69.69,0,0,1,933,286c10.73,34,15.81,112.29,15.86,113.08a.69.69,0,0,1-.65.73Z"/><path class="cls-25" d="M829.72,398.83h0a.7.7,0,0,1-.67-.72c.14-3.75,3.57-92,10.69-112.16a.69.69,0,0,1,.89-.42.69.69,0,0,1,.42.88c-7,20-10.57,110.84-10.61,111.75A.69.69,0,0,1,829.72,398.83Z"/><polygon class="cls-15" points="893.63 232.49 889 240.39 899.45 349.72 887.6 374.64 875.46 350.61 883.41 239.71 880.02 231.81 889.12 228.43 893.63 232.49"/><polygon class="cls-10" points="902.18 227.53 900.21 223.19 887.8 227.53 877.54 222.81 875.81 227.53 877.99 235.65 887.35 229.57 896.49 236.21 902.18 227.53"/><path class="cls-19" d="M984.61,450.12h-6.82V437.89H954.37v12.23h-6.82V437.19a5.87,5.87,0,0,1,5.57-6.12H979a5.87,5.87,0,0,1,5.57,6.12Z"/><path class="cls-15" d="M919.19,447.06h97.41a1.76,1.76,0,0,1,1.76,1.76v62.82a1.76,1.76,0,0,1-1.76,1.76H919.19a1.75,1.75,0,0,1-1.75-1.75V448.82A1.76,1.76,0,0,1,919.19,447.06Z"/><path class="cls-19" d="M970.76,483l-.17,0-53.07-16.76a.57.57,0,0,1,.34-1.08l52.88,16.7,47-16.83a.57.57,0,0,1,.72.35.55.55,0,0,1-.34.72L971,483A.63.63,0,0,1,970.76,483Z"/><rect class="cls-10" x="967.83" y="476.7" width="6.04" height="10.94"/><path class="cls-7" d="M954.7,408.61s-5,13.63-5.84,18-4.86,7.91-2.66,9.2,7-5.71,7-5.71a21.76,21.76,0,0,1,1.45,5.24c.37,2.76,1.72,5.3,3.76,5.19s1.33-4.89,1.33-4.89,1.2,5.14,3.48,4.44c1.85-.56,1.45-7.42,1.45-7.42a42.6,42.6,0,0,0,1.67,5.48c.72,1.33,3.22,1.78,3.17-2.64s-.09-4.3-.09-4.3a33.89,33.89,0,0,0,2.08,5.19c.67.86,3.22,1.1,2.56-2.58-1.15-6.48-4.56-19-9.36-25.16Z"/><path class="cls-19" d="M912.7,155.74a11,11,0,0,0-3.88-3.09c-3.73-1.64-8-.25-12.11-.4-6.08-.23-11.54-3.91-17.57-4.72a37.73,37.73,0,0,0-10,.44,5.42,5.42,0,0,0-1.95.52,4.8,4.8,0,0,0-1.69,1.93c-1.24,2.15-2.26,4.64-4.4,5.9-2.66,1.57-6.36.77-8.77,2.7-2.61,2.09-2.3,6.07-1.75,9.36a4.35,4.35,0,0,0,.59,1.81,3.82,3.82,0,0,0,2.28,1.26,17.76,17.76,0,0,0,9.43-.22c3-.92,5.85-2.65,9-2.72,3.88-.09,7.29,2.34,10.79,4a29.72,29.72,0,0,0,7.59,2.47c3.21.59,6.53.66,9.64,1.68,5.26,1.74,13,8.46,15.72.8C917.92,170.92,917.26,161.2,912.7,155.74Z"/><polygon class="cls-26" points="917.71 234.64 909.89 266.85 917.71 270.12 906.19 336.91 902.18 227.53 917.71 234.64"/><polygon class="cls-26" points="860.28 234.64 868.1 266.85 860.28 270.12 871.8 336.91 875.81 227.53 860.28 234.64"/><path class="cls-10" d="M884.25,204.4,871,203.53s-1.44,5.78,5.4,6.39S884.25,204.4,884.25,204.4Z"/></g></svg>