<?xml version="1.0" encoding="utf-8"?>
<!-- Generator: Adobe Illustrator 24.2.3, SVG Export Plug-In . SVG Version: 6.00 Build 0)  -->
<svg version="1.1" id="圖層_1" xmlns="http://www.w3.org/2000/svg" xmlns:xlink="http://www.w3.org/1999/xlink" x="0px" y="0px"
	 viewBox="0 0 960.6 291.4" style="enable-background:new 0 0 960.6 291.4;" xml:space="preserve">
<style type="text/css">
	.st0{clip-path:url(#SVGID_2_);}
	.st1{fill:#FFDFD2;}
	.st2{fill:#CCBDAD;}
	.st3{fill:#E5B0AE;}
	.st4{fill:#FFFFFF;}
	.st5{fill:#1A4172;}
	.st6{fill:#432D4E;}
	.st7{fill:#CD6868;}
	.st8{fill:#E5B39E;}
	.st9{fill:#0D0D25;}
	.st10{fill:#DC7167;}
	.st11{fill:#E2918F;}
	.st12{fill:#D48B57;}
	.st13{fill:#4C7C89;}
	.st14{fill:#E7ECFB;}
	.st15{fill:#0E0E35;}
	.st16{fill:#24153B;}
	.st17{fill:#121054;}
	.st18{fill:#F9F9FB;}
	.st19{fill:#84667F;}
	.st20{fill:#DEE5FC;}
	.st21{fill:#121212;}
	.st22{fill:#997686;}
</style>
<g id="圖層_5_1_">
	<g>
		<g>
			<defs>
				<rect id="SVGID_1_" x="-100.8" y="-43.9" width="1101.4" height="362"/>
			</defs>
			<clipPath id="SVGID_2_">
				<use xlink:href="#SVGID_1_"  style="overflow:visible;"/>
			</clipPath>
			<g class="st0">
				<path class="st1" d="M160.1,450c-19.1-7.6-36-19.7-49.3-35.4C94,394.9,79,373.2,67.5,349.4c-27.6-57.1-28.3-121,4.1-176.2
					c75.5-128.8,211-95.9,282-42.5C383.8,153.5,471.4,190,545.7,56c91.8-165.5,438.5-130,374.6,151.3c-12.3,54,11.3,89,47.4,122.6
					c25.8,24.1,41.7,57.8,28,94c-12.5,33.1-39.3,61.8-71.5,71.4c-25.7,7.7-53,4.1-79.5,0.6c-131.1-17.3-266.1-38.4-398.4-38.4
					c-50.1-0.3-100.3,4.1-150.2,4.3C250.1,462,204.1,467.9,160.1,450z"/>
				<path class="st2" d="M412.1,508.5c33.3-42.9,115.5-160,69.9-217.6c-17.4-21.9-56.2-13.2-63.1,72
					c-4.9,59.8-27.2,119.8-37.8,145.6H412.1z"/>
				<path class="st3" d="M632.4,262.1c-13.1-38.3-70.2-45.3-121,67.7c-35,77.8-93,147.9-120.5,178.7h66
					C532.5,456.6,663,351.7,632.4,262.1z"/>
				<path class="st2" d="M264.6,497.6c-64.3-157.4-84.2-268.8-57.4-323.1c1.1-2.2,0.2-4.8-2-5.9c-2.2-1.1-4.8-0.2-5.9,2
					c-16.1,32.7-16.6,83.8-1.5,151.9c11,49.7,30.3,108.5,57.4,175.1H264.6z"/>
				<path class="st3" d="M189.4,260.7c0,0-34.7,11.6-52.7-50.1C136.7,210.5,194.8,207.8,189.4,260.7z"/>
				<path class="st3" d="M197,293c0,0-13.5-34,47.1-55.4C244.1,237.6,250.1,295.4,197,293z"/>
				<path class="st3" d="M194.7,198.6c0,0-24.1-27.5,26-68C220.7,130.6,245.6,183.2,194.7,198.6z"/>
				<polygon class="st4" points="340.3,132.5 306.8,148.4 300.5,169.8 314.7,292.9 369.3,289.3 359.2,164.8 				"/>
				<path class="st5" d="M391,280.6c0,0,12.5,60.8,0.3,282l-31.8,4c0,0-19.7-197.2-22.2-199.8S298,561.3,298,561.3l-33.8-2.9
					l21.6-269.2L391,280.6z"/>
				<path class="st6" d="M306.8,148.3c0,0,14.9,103.8,14.5,122.1s2.2,55.7,2.2,55.7l-42.2-1.2l2.1-72.2c0,0-15.4,26.3-19.4,37.8
					s-12.2,43.7-12.2,43.7l-23.7-2.1c0,0,2.8-73.2,18.5-110.1S268.6,166.6,306.8,148.3z"/>
				<path class="st7" d="M337.4,94.7c0,0,1.2-3.5,3.1-2.7c4.8,2.1,1.8,7.1-0.6,8.6L337.4,94.7z"/>
				<path class="st8" d="M335.5,83.4L335.5,83.4c-0.1-0.3-0.1-0.6-0.2-1c-3.4-13.4-17.1-21.5-30.5-18.1s-21.5,17.1-18.1,30.5
					c0.9,3.4,2.4,6.5,4.6,9.3c3.7,5.1,6.9,9.5,10,13c5.1,5.8,8.3,13.2,8.9,20.9l0.5,6.1c17,4.1,21.9-5,21.9-5l-2.5-10.8
					c-0.3-1.4,0.5-2.8,1.9-3.3l0,0C350.2,119.3,337.6,91.8,335.5,83.4z"/>
				<path class="st9" d="M313.7,102.6c-0.3-1.2-1.6-2-2.8-1.7c-1.2,0.3-2,1.6-1.7,2.8c0.3,1.2,1.6,2,2.8,1.7
					C313.2,105.1,314,103.8,313.7,102.6L313.7,102.6z"/>
				<path class="st9" d="M332.8,93.4c-0.3-1.3-1.6-2-2.8-1.7c-1.3,0.3-2,1.6-1.7,2.8c0.3,1.3,1.6,2,2.8,1.7l0,0
					C332.3,95.9,333.1,94.7,332.8,93.4z"/>
				<path class="st9" d="M304.7,101.1c-0.2,0.1-0.5,0.1-0.7,0c-0.7-0.2-1.1-1-0.9-1.7c0.7-2.2,3.4-6,9.1-4.7c0.7,0.2,1.1,1,0.9,1.7
					c-0.2,0.6-0.8,1.1-1.5,1c-4.7-1-5.9,2.7-5.9,2.8C305.5,100.6,305.1,101,304.7,101.1z"/>
				<path class="st9" d="M325,92.2c-0.2,0.1-0.5,0.1-0.7,0c-0.7-0.2-1.1-1-0.9-1.7l0,0c0.6-2.2,3.4-6,9.1-4.7
					c0.7,0.2,1.2,0.9,1.1,1.6c-0.2,0.7-0.9,1.2-1.6,1.1c-4.7-1-5.9,2.7-5.9,2.8C325.8,91.7,325.5,92,325,92.2z"/>
				<polygon class="st10" points="284.9,97.1 295.7,111.9 299.9,109.9 297.1,88 				"/>
				<path class="st11" d="M300.4,109.2c-0.6-0.7-1.4-1.1-2.3-1.2c-1.9-0.2-5-0.2-6.5,2.3c-2.2,3.8,5.8,10.1,10.7,4.7
					C302.3,114.9,303.6,112.8,300.4,109.2z"/>
				<path class="st7" d="M327.4,107.8c-1.2,1-2.7,1.3-4.1,0.9c-0.2-0.1-0.3-0.3-0.3-0.5c0.1-0.2,0.3-0.3,0.5-0.3
					c1.6,0.4,3.4-0.3,4.2-1.8c0.2-0.3,0.3-0.6,0.4-0.9c-0.1-0.3-0.5-0.5-1-0.9c-2.4-1.4-4.2-3.7-5.1-6.3c-0.1-0.2,0.1-0.4,0.3-0.5
					c0.2-0.1,0.4,0,0.5,0.2c0.8,2.5,2.5,4.6,4.8,5.9c0.7,0.4,1.3,0.8,1.4,1.4c0.1,0.5-0.1,1.1-0.5,1.5
					C328.1,107.1,327.8,107.5,327.4,107.8z"/>
				<path class="st4" d="M319.3,114.2c0,0,9.5-1.2,14.7-5.4c0,0,0.4,7.5-4.9,9.4S319.3,114.2,319.3,114.2z"/>
				<path class="st10" d="M329.2,75c0,0,4.1,1.6,8.7,16.1c0,0-3-16.7-5.3-18.1S329.2,75,329.2,75z"/>
				<path class="st10" d="M286.4,65.1c4-6.3,13.2-7.3,18.3-12.7c-1.2,4.1-3.3,7.9-5.9,11.3L323.6,52c-2.2,3.1-4.8,6.1-7.6,8.7
					c6.9-0.5,13.7-1.6,20.3-3.4c0.8,0.9,0.6,2.4,0.3,3.6c-1.5,6.7-3.6,14.1-9.4,17.6c-1.9,1.1-3.9,1.8-6,2.2
					c-8.2,1.8-17.8,1.2-23.9,7c-2.8,2.7-5.6,10.9-10.3,10.5C282.9,97.9,273.8,84.7,286.4,65.1z"/>
				<polygon class="st10" points="331.9,146.8 331.1,155.6 326.3,157.4 320.1,152.4 324.8,146.2 				"/>
				<polygon class="st4" points="308.9,147.4 310.4,141 324.5,144.6 331.4,134.2 334.4,135.3 334.9,148.1 325.4,147.1 319.9,154.3 
									"/>
				<polygon class="st10" points="331.1,155.6 356.7,261.6 346,288.9 326.1,266.3 326.2,155.9 				"/>
				<path class="st11" d="M559.2,285.7c0,0-5.5,9.5-6.7,13.3s-5.3,6.7-3.4,8.1s7-4.5,7-4.5s1.4,8.1,1.4,10.7s1.3,7.1,3.2,7.2
					s0.8-12.2,0.8-12.2s1.9,10.3,3.6,10.8s1.2-12.9,1.2-12.9s1.5,11.1,2.4,11.8s1.9-0.3,2.3-4.4c0.2-2.8,0.2-5.5-0.2-8.3
					c0,0,1.6,7.7,2.1,8.5s1.8,1.6,1.8-4.4s-2.2-19.1-5.9-25.2L559.2,285.7z"/>
				<path class="st5" d="M484.3,54.6c0,0,22.8-10,34.2,13s17,49.8,10.3,61.2s-28.8,8-28.8,8s-26.6,5.4-37.1-6S457.4,60.9,484.3,54.6
					z"/>
				<polygon class="st6" points="541.2,300.8 549.7,459 459.6,462 456.2,300.8 464,270.5 509.6,261.1 				"/>
				<path class="st12" d="M453.2,144.4l32.3-13.3l20-0.2c0,0,29.3,13.5,32.2,16.7s32.1,130.9,37,137.1c0,0-6.4,7.6-20.8,7.6
					c0,0-9.8-30.4-13.3-50l7.2,70.2c0,0-44.1,12.1-68.9,2.9l-9.8-35.6l-3.2,35.3c-4.1,1.1-8.5,1.4-12.7,1L453.2,144.4z"/>
				
					<rect x="489.9" y="184.5" transform="matrix(0.9662 -0.2576 0.2576 0.9662 -38.6644 140.1331)" class="st13" width="51.2" height="66.2"/>
				<path class="st14" d="M485.9,196.5l-4.7,1.3c-0.4,0.1-0.7-0.1-0.8-0.5c-0.1-0.4,0.1-0.7,0.5-0.8l4.7-1.3
					c0.4-0.1,0.7,0.1,0.9,0.4c0.1,0.4-0.1,0.7-0.4,0.9C486,196.5,486,196.5,485.9,196.5z"/>
				<path class="st14" d="M488.3,205.3l-4.7,1.3c-0.4,0.1-0.7-0.1-0.8-0.5c-0.1-0.4,0.1-0.7,0.5-0.8l0,0l4.7-1.3
					c0.4-0.1,0.7,0.1,0.8,0.5l0,0C488.9,204.9,488.7,205.2,488.3,205.3L488.3,205.3z"/>
				<path class="st14" d="M490.3,213l-4.7,1.3c-0.4,0.1-0.7-0.1-0.8-0.5c-0.1-0.4,0.1-0.7,0.5-0.8l0,0l4.7-1.3
					c0.4-0.1,0.7,0.1,0.8,0.5l0,0C490.9,212.6,490.7,212.9,490.3,213z"/>
				<path class="st14" d="M492.5,221.1l-4.7,1.3c-0.4,0.1-0.7-0.1-0.9-0.4c-0.1-0.4,0.1-0.7,0.4-0.9h0.1l4.7-1.3
					c0.4-0.1,0.7,0.1,0.9,0.4c0.1,0.4-0.1,0.7-0.4,0.9C492.5,221.1,492.5,221.1,492.5,221.1z"/>
				<path class="st14" d="M494.6,229.1l-4.7,1.3c-0.4,0.1-0.7-0.1-0.8-0.5c-0.1-0.4,0.1-0.7,0.5-0.8l0,0l4.7-1.3
					c0.4-0.1,0.7,0.1,0.8,0.5C495.2,228.7,495,229,494.6,229.1z"/>
				<path class="st14" d="M496.8,237.2l-4.8,1.3c-0.4,0.1-0.7-0.2-0.8-0.5c-0.1-0.3,0.1-0.7,0.4-0.8l4.7-1.3
					c0.4-0.1,0.7,0.1,0.9,0.4C497.4,236.6,497.2,237,496.8,237.2C496.8,237.1,496.8,237.2,496.8,237.2L496.8,237.2z"/>
				<path class="st14" d="M499.5,247.7l-4.7,1.3c-0.4,0.1-0.7-0.1-0.8-0.5l0,0c-0.1-0.4,0.1-0.7,0.5-0.8l4.7-1.3
					c0.4-0.1,0.7,0.1,0.9,0.4c0.1,0.4-0.1,0.7-0.4,0.9C499.6,247.6,499.6,247.6,499.5,247.7L499.5,247.7z"/>
				<path class="st8" d="M512.6,217.7c0,0,7-9.8,10.3-12.8s4.3-8.3,6.6-7.1s-1.3,9-1.3,9s8.8-2.3,11.4-3.5s7.7-2,8.7-0.1
					s-11.8,6.4-11.8,6.4s6.4-1.9,7.6-0.4s-7.6,6.2-7.6,6.2s6.6-2.5,7.7-1.9s0.5,2-3.3,4.3s-3.2,2.5-3.2,2.5s3.7-2,4.8-1.9
					s1.5,2.3-4.6,5.1s-13.5,5.6-21.4,4.7L512.6,217.7z"/>
				<path class="st12" d="M453.2,144.4c-16.3,12.1-50.2,79.3-10.5,99.9s78.4-11.4,78.4-11.4l-9.8-18.3c0,0-42.8,12.4-49.3-1
					s-0.3-26.4-0.3-26.4S454.2,148,453.2,144.4L453.2,144.4z"/>
				<path class="st7" d="M515.9,92.2c0,0,1.8-3,3.4-1.9c4.1,2.9,0,7.1-2.6,8.1L515.9,92.2z"/>
				<path class="st8" d="M489.5,54.6c-13.2,1.5-22.7,13.4-21.2,26.6c0.3,2.8,1.1,5.6,2.4,8.1c3.7,8.2,6.8,14.9,10.4,19.6
					c3.7,4.8,5.5,10.8,5,16.8l-0.6,6.1c14.3,6.4,20.1-0.9,20.1-0.9l-0.6-14l0,0c15-2.5,11.7-30.4,11.4-38.6l0,0c0-0.3,0-0.6,0-0.9
					c-0.6-13.3-11.9-23.6-25.2-22.9C490.6,54.5,490,54.5,489.5,54.6z"/>
				<path class="st15" d="M510.2,89.7c0.1-1.2-0.8-2.1-2-2.2s-2.1,0.8-2.2,2s0.8,2.1,2,2.2C509.1,91.7,510.1,90.8,510.2,89.7
					L510.2,89.7z"/>
				<path class="st15" d="M490.7,93.3c0.1-1.2-0.8-2.1-2-2.2s-2.1,0.8-2.2,2s0.8,2.1,2,2.2C489.7,95.3,490.7,94.4,490.7,93.3z"/>
				<path class="st7" d="M508.1,105.1c0,0-1.9-1.1-2.9-0.7c-0.7,0.4-1.2,1-1.5,1.8c-0.5-0.7-1.2-1.1-2.1-1.1
					c-1.7,0.4-3.3,0.9-4.8,1.5c0,0,3.9,5.2,7.7,3.8c2.2-0.7,3.6-2.7,3.6-5L508.1,105.1z"/>
				<path class="st16" d="M504.7,107.7c-4.4,1.4-9-1.4-9.1-1.5s-0.2-0.3-0.1-0.4s0.3-0.2,0.4-0.1c0.3,0.2,7.6,4.6,12.1-1.1
					c0.1-0.1,0.3-0.1,0.4,0s0.1,0.3,0,0.4C507.5,106.3,506.2,107.2,504.7,107.7z"/>
				<path class="st15" d="M485.2,90.1c-0.3,0-0.5-0.1-0.7-0.3c-0.3-0.4-0.3-0.9,0.1-1.2l0,0c1.9-1.4,4.3-2.1,6.7-2
					c0.5,0,0.9,0.4,0.8,0.9l0,0c0,0.5-0.4,0.8-0.9,0.8c-2-0.1-3.9,0.5-5.5,1.6C485.6,90.1,485.4,90.1,485.2,90.1z"/>
				<path class="st15" d="M506.4,85.5c-0.5-0.1-0.8-0.6-0.7-1c0-0.3,0.2-0.5,0.4-0.6c2.2-1.1,4.6-1.4,7-0.8c0.5,0.1,0.8,0.6,0.7,1
					l0,0c-0.1,0.4-0.5,0.7-1,0.7c-1.9-0.4-3.9-0.2-5.7,0.6C506.9,85.5,506.6,85.6,506.4,85.5z"/>
				<path class="st7" d="M502.1,100.3c1.8-0.2,3.1-1.7,3.2-3.5c0-0.2-0.1-0.4-0.2-0.5c-2.4-2.6-2.3-6.6-2.3-6.6
					c0-0.4-0.4-0.7-0.8-0.6c-0.3,0-0.6,0.3-0.6,0.6c0,2.7,0.9,5.3,2.5,7.4c-0.1,0.6-0.7,1.9-3,1.9c-0.4,0-0.7,0.3-0.7,0.7l0,0
					c0,0.4,0.3,0.7,0.7,0.7C501.2,100.5,501.6,100.4,502.1,100.3z"/>
				<path class="st5" d="M490.1,69.3c0,0,9.4,7.1,17.6,13.5c8.2,6.5,6,32.2,6,32.2l8.8-22c0,0-3.1-44.5-33.4-39.8S467,89.9,472,96.2
					s5.2,1.5,5.2,1.5S489.3,75.1,490.1,69.3z"/>
				<path class="st11" d="M478.3,95.7c-0.4-0.8-1.1-1.3-2-1.6c-1.7-0.6-4.7-1.2-6.6,0.9c-2.8,3.1,3.5,10.6,9.2,6.5
					C479,101.5,480.6,99.8,478.3,95.7z"/>
				<path class="st15" d="M479.2,221.2c-6.4,0-11.5-1.5-15-4.5c-3.2-2.9-5.1-7-5.1-11.3c0-0.2,0.1-0.3,0.3-0.3l0,0
					c0.2,0,0.3,0.2,0.3,0.3l0,0c0,4.1,1.8,8.1,4.9,10.8c5.1,4.4,13.6,5.5,25.2,3.3c0.2,0,0.3,0.1,0.4,0.2c0,0.2-0.1,0.3-0.2,0.4l0,0
					C486.5,220.8,482.9,221.2,479.2,221.2z"/>
				<path class="st15" d="M473.5,251.2c-6.8,0-13.7-0.8-20.3-2.3c-0.2,0-0.3-0.2-0.2-0.4c0-0.2,0.2-0.3,0.4-0.2l0,0
					c0.3,0.1,25.6,6.3,43.2-2.2c0.2-0.1,0.3,0,0.4,0.1c0.1,0.2,0,0.3-0.1,0.4C489.6,250.1,481.1,251.2,473.5,251.2z"/>
				<path class="st17" d="M600.3,140.8c-1,6.2,5.6,12.8,2.5,18.2c-0.7,1.2-1.8,2.2-2.4,3.4c-1.3,2.8,0.3,6.3,2.9,7.9s6,1.6,9,0.9
					s5.9-1.9,8.8-2.7c6.7-1.7,13.7-0.9,20.6-1s14.2-1.2,20.9,0.5c7.8,2,14.2,7.4,21.2,11.6c7.1,4.3,14.8,7.3,22.9,8.9
					c4.2,0.8,8.7,1.3,12.8,0c8.2-2.6,12.8-11.8,11.2-19.9c-1-4.7-3.6-8.9-7.3-11.9c-3.3-2.7-7.8-4.2-9.9-8.1
					c-3-5.4,0.7-12.1,0.2-18.3c-0.4-5.2-3.8-10.1-8.1-12.9c-4-2.6-9.3-3.9-11.9-8.3c-2.8-4.8-0.6-10.3-0.3-15.4
					c0.4-7.3-3.2-14.4-8.6-19.3c-1.6-1.5-3.4-2.8-5.3-3.9c-12.8-7.5-31.2-7.2-38.8,7.5c-2.3,4.5-3.2,9.9-6.6,13.7
					c-3.7,4.1-9.9,5.8-12.4,10.8c-3.2,6.2,1.2,14.2-1.9,20.5c-2,4.1-6.5,6.1-10.5,8.2S601,136.3,600.3,140.8z"/>
				<path class="st7" d="M639.7,98.2c0,0-1.5-3-3.1-2.1c-4.1,2.4-0.6,6.7,1.8,7.9L639.7,98.2z"/>
				<path class="st8" d="M667.3,67.5c12.4,2.5,20.4,14.5,17.9,26.8c-0.5,2.6-1.5,5.2-2.9,7.5c-4.1,7.5-7.5,13.5-11.3,17.7
					c-3.9,4.2-6,9.8-6,15.5l0.1,5.8c-14,4.9-18.9-2.4-18.9-2.4l1.7-13.2l0,0c-14-3.5-8.7-29.6-7.7-37.3l0,0c0-0.3,0-0.6,0.1-0.9
					c1.6-12.5,13.1-21.3,25.6-19.7C666.3,67.4,666.8,67.4,667.3,67.5z"/>
				<path class="st17" d="M666,90.8c2.3,3.2,4.5,6.6,6.4,10.1c2.1,3.6,4.3,7.5,4.3,11.7c4-2.3,6.9-6.2,9.4-10.1
					c1.2-1.8,2.2-3.7,2.9-5.8c0.8-2.9,0.5-6.1,0.1-9.1c-0.5-3.9-1-8-3.2-11.3c-1.5-2.1-3.5-3.9-5.8-5.2c-5.1-3.4-11.1-5.2-17.2-5.2
					c-6.2,0-12.1,2.4-16.5,6.8c-5.4,5.7-7,13.9-8.3,21.6c1.2-3.1,3.7-5.6,6.1-7.9c1.5-1.6,3.2-3,5.2-4c3.4-1.6,4.2-1,10.1-4
					C660.4,83.5,663,86.8,666,90.8z"/>
				<path class="st11" d="M674.7,107.3c0.5-0.7,1.2-1.2,2-1.4c1.6-0.4,4.5-0.8,6.1,1.4c2.4,3.1-4.1,9.8-9.2,5.4
					C673.6,112.7,672.2,110.9,674.7,107.3z"/>
				<path class="st15" d="M645.4,98.9c0-1.1,0.9-2,2-2s2,0.9,2,2s-0.9,2-2,2c0,0,0,0-0.1,0C646.2,100.9,645.4,100,645.4,98.9z"/>
				<path class="st15" d="M663.5,103.4c0-1.1,1-2,2.1-1.9c1.1,0,2,1,1.9,2.1c0,1.1-1,2-2.1,1.9l0,0
					C664.3,105.4,663.4,104.5,663.5,103.4z"/>
				<path class="st17" d="M668.9,100.7c0.4,0.1,0.9-0.2,1-0.6c0.1-0.2,0-0.5-0.2-0.7c-1.5-1.7-3.6-2.9-5.8-3.2
					c-0.4-0.1-0.9,0.2-0.9,0.7l0,0c-0.1,0.5,0.2,0.9,0.7,1l0,0c1.8,0.3,3.5,1.2,4.8,2.6C668.5,100.6,668.7,100.7,668.9,100.7z"/>
				<path class="st17" d="M650.7,93.6c0.2-0.1,0.4-0.3,0.5-0.5c0.2-0.4-0.1-0.9-0.5-1l0,0c-2.2-0.7-4.5-0.5-6.6,0.3
					c-0.4,0.2-0.6,0.7-0.4,1.1s0.7,0.6,1.1,0.4l0,0c1.7-0.7,3.6-0.8,5.4-0.3C650.3,93.6,650.5,93.6,650.7,93.6z"/>
				<path class="st7" d="M651.9,109.8c-1.7-0.4-2.8-1.8-2.8-3.5c0-0.2,0.1-0.3,0.2-0.5c1.5-1.7,2.5-3.8,2.7-6.1
					c0-0.4,0.4-0.7,0.7-0.7l0,0c0.4,0,0.7,0.4,0.7,0.7c-0.2,2.5-1.2,4.9-2.9,6.8c0.1,0.6,0.5,1.9,2.7,2c0.4,0.1,0.6,0.4,0.6,0.8
					c-0.1,0.3-0.3,0.6-0.7,0.6C652.7,110,652.3,109.9,651.9,109.8z"/>
				<path class="st10" d="M645.4,113c0,0,2.8-1.7,3.8-1.3c0.7,0.4,1.2,1,1.4,1.7c0.5-0.7,1.2-1,2-1c1.2,0.1,3.5,3.8,3.5,3.8
					s-4.2,5-7.8,3.9s-2.8-6.8-2.8-6.8L645.4,113z"/>
				<path class="st18" d="M645.4,113l10.7,3.2c0,0-4.3,2.3-7.2,1.6S645.4,113,645.4,113z"/>
				<path class="st4" d="M669.3,141.2c0,0,1.8-8.9-4.1-8.9c-5.7,2.9-12.6,2.7-18.1-0.6c0,0-4.3-0.1-3.9,7.5c0,0-24.1,7.2-32.2,13.1
					s-22.9,42.8-22.5,70.7c0.3,23.5,0.3,40.9,4.9,52l9.7-1.1c0,0,5.9-9.4,7.6-24.1c0.9-8.1,3.1-23.8,3.1-23.8s-2,17.5,3.8,26.7
					l65.1,2c0,0,8.3-4.1,13.7-35c0,0,15.1-6.7,12.6-38.1C706.8,154.4,688.9,147.1,669.3,141.2z"/>
				<path class="st12" d="M617.5,252.6c0,0-12.9,9.6-15.3,57.7s13.6,179,13.6,179l27.8,1.5c0,0-3.3-175.3,1.1-175.8S678,490,678,490
					l25.5-1.5c0,0,2.8-174-20.9-233.8L617.5,252.6z"/>
				
					<rect x="592.1" y="178" transform="matrix(9.931535e-02 -0.9951 0.9951 9.931535e-02 360.2616 802.8512)" class="st15" width="63.1" height="48.8"/>
				<path class="st14" d="M604.3,173.6l-4.7-0.5c-0.4,0-0.6-0.4-0.6-0.7c0-0.4,0.4-0.6,0.7-0.6l4.7,0.5c0.4,0,0.6,0.4,0.6,0.7
					C604.9,173.4,604.6,173.6,604.3,173.6z"/>
				<path class="st14" d="M603.4,182.3l-4.7-0.5c-0.4,0-0.6-0.4-0.6-0.7c0-0.4,0.4-0.6,0.7-0.6l4.7,0.5c0.4,0,0.6,0.3,0.6,0.7
					C604.1,182.1,603.7,182.4,603.4,182.3z"/>
				<path class="st14" d="M602.6,189.8l-4.6-0.5c-0.4,0-0.6-0.4-0.6-0.7c0-0.4,0.4-0.6,0.7-0.6l4.7,0.5c0.4,0,0.6,0.4,0.6,0.7
					C603.3,189.6,603,189.8,602.6,189.8C602.7,189.8,602.7,189.8,602.6,189.8z"/>
				<path class="st14" d="M601.8,197.7l-4.6-0.5c-0.4,0-0.6-0.4-0.6-0.7s0.3-0.6,0.7-0.6l0,0l4.7,0.5c0.4,0,0.6,0.3,0.6,0.7
					C602.6,197.5,602.3,197.7,601.8,197.7C601.9,197.7,601.9,197.7,601.8,197.7L601.8,197.7z"/>
				<path class="st14" d="M601.1,205.6l-4.6-0.5c-0.4,0-0.6-0.3-0.6-0.7l0,0c0-0.4,0.4-0.6,0.7-0.6l4.6,0.5c0.4,0,0.6,0.3,0.6,0.7
					l0,0C601.7,205.4,601.4,205.7,601.1,205.6z"/>
				<path class="st14" d="M600.3,213.5l-4.6-0.5c-0.4,0-0.6-0.3-0.6-0.7s0.3-0.6,0.7-0.6h0.1l4.6,0.5c0.4,0,0.6,0.4,0.6,0.7
					C600.9,213.3,600.6,213.5,600.3,213.5L600.3,213.5z"/>
				<path class="st14" d="M599.2,223.8l-4.7-0.5c-0.4,0-0.6-0.4-0.6-0.7c0-0.4,0.3-0.6,0.7-0.6l0,0l4.6,0.5c0.4,0,0.6,0.4,0.6,0.7
					C599.9,223.6,599.6,223.8,599.2,223.8C599.3,223.8,599.3,223.8,599.2,223.8z"/>
				
					<rect x="623.1" y="171.7" transform="matrix(9.931535e-02 -0.9951 0.9951 9.931535e-02 382.7637 786.3841)" class="st4" width="5.4" height="20.1"/>
				<path class="st8" d="M625.2,199.3c0,0-7.2-8.3-10.5-10.7s-4.6-7.2-6.6-5.9s2,8,2,8s-8.1-1.3-10.6-2.1s-7.2-1.1-7.9,0.6
					s11.3,4.7,11.3,4.7s-7.1-1.3-7.5,0.9c-0.3,1.8,8,4.4,8,4.4c-2.2-0.5-4.5-0.9-6.7-1.2c-1.4,0.1-2.8,2,0.9,3.7
					c1.6,0.8,3.4,1.5,5.1,2c-1.7-0.2-3.4-0.4-5.1-0.3c-1,0.2-2.2,2.2,1.1,3.1c5.8,1.6,17.6,3.8,24.6,2.2L625.2,199.3z"/>
				<path class="st4" d="M696.3,219.7c0,0-38.3,26.4-76.8-10.2l3.5-12.4c0,0,49.1,6.1,58-19.8L696.3,219.7z"/>
				<path class="st15" d="M666.4,228.8c-7.1,0-14.1-1.2-20.9-3.4c-0.2-0.1-0.3-0.2-0.2-0.4s0.2-0.3,0.4-0.2l0,0
					c30.7,10,50.2-5.1,50.4-5.3c0.1-0.1,0.3-0.1,0.5,0c0.1,0.1,0.1,0.3,0,0.5l0,0C696.4,220,685.2,228.8,666.4,228.8z"/>
				<path class="st15" d="M643.1,197.9c-1.4,0-2.2,0-2.2,0c-0.2,0-0.3-0.1-0.3-0.3l0,0c0-0.2,0.2-0.3,0.3-0.3l0,0
					c0.3,0,33.6,1.9,38.6-20c0-0.2,0.2-0.3,0.4-0.2c0.2,0,0.3,0.2,0.2,0.4l0,0C675.8,196.4,650.8,197.9,643.1,197.9z"/>
				<path class="st8" d="M603,273.9c0,0,7.7,7.8,9.9,11.2s6.8,5.1,5.4,7s-7.9-2.5-7.9-2.5s0.8,8.2,1.4,10.7s0.6,7.2-1.2,7.8
					s-3.9-11.6-3.9-11.6s0.8,10.4-0.8,11.3s-4.5-12.2-4.5-12.2s1.4,11.1,0.7,12s-1.9,0.2-3.3-3.6c-0.9-2.6-1.6-5.3-1.9-8.1
					c0,0,0.4,7.9,0.1,8.8s-1.4,2.1-2.9-3.8s-2.8-19.1-0.7-25.9L603,273.9z"/>
				<path class="st15" d="M213.2,126.3c0,0-30.4-10-23.4-45.7c0,0,20.1-24.3,40.1-14.4s17.4,29.9,17,32.5S213.2,126.3,213.2,126.3z"
					/>
				<path class="st8" d="M217.5,68.3c-13.6,1.9-23.1,14.5-21.1,28.1c0.4,2.9,1.3,5.7,2.7,8.3c4.1,8.4,7.4,15.1,11.3,20
					c4,4.8,6,11,5.6,17.2l-0.4,6.3c15,6.1,20.8-1.5,20.8-1.5l-1.1-14.4l0,0c15.5-3,11.3-31.7,10.6-40.2l0,0c0-0.3,0-0.6-0.1-1
					c-1-13.7-13-24-26.7-23C218.6,68.2,218.1,68.3,217.5,68.3z"/>
				<path class="st15" d="M241.8,103.9c0-1.2-0.9-2.2-2.1-2.2c-1.2,0-2.2,0.9-2.2,2.1s0.9,2.2,2.1,2.2
					C240.7,106.1,241.7,105.1,241.8,103.9L241.8,103.9z"/>
				<path class="st15" d="M221.5,107.7c0-1.2-0.9-2.2-2.1-2.2c-1.2,0-2.2,0.9-2.2,2.1s0.9,2.2,2.1,2.2
					C220.5,109.9,221.4,108.9,221.5,107.7L221.5,107.7z"/>
				<path class="st15" d="M214.7,102c-0.5,0.1-1-0.2-1-0.7c0-0.3,0-0.5,0.2-0.8c1.7-1.8,4-2.9,6.5-3.2c0.5-0.1,0.9,0.3,1,0.8l0,0
					c0,0.5-0.3,0.9-0.8,1c-2,0.2-3.9,1.2-5.3,2.6C215.1,101.8,214.9,101.9,214.7,102z"/>
				<path class="st15" d="M234.9,95.6c-0.5-0.2-0.7-0.7-0.5-1.2c0.1-0.2,0.3-0.4,0.6-0.5c2.4-0.6,5-0.3,7.2,0.8
					c0.4,0.2,0.6,0.8,0.4,1.2c-0.2,0.4-0.8,0.6-1.2,0.4c-1.8-0.9-3.9-1.1-5.9-0.7C235.3,95.7,235.1,95.6,234.9,95.6z"/>
				<path class="st7" d="M231.8,115.3c1.8-0.3,3.2-1.8,3.2-3.7c0-0.2-0.1-0.4-0.2-0.5c-2.5-2.6-2.6-6.8-2.6-6.8
					c0-0.4-0.4-0.8-0.8-0.8c-0.4,0-0.8,0.3-0.8,0.7l0,0c0.1,2.8,1,5.4,2.8,7.6c-0.1,0.6-0.6,2-3.1,2c-0.4,0-0.8,0.3-0.8,0.8
					c0,0.4,0.3,0.8,0.8,0.8l0,0C230.9,115.4,231.4,115.3,231.8,115.3z"/>
				<path class="st15" d="M202.2,112.9c3,4,7.7-28,22.6-30.5s21.9,18.9,21.9,18.9s2.5-12.7-3.8-22.1s-21.6-17.8-35.8-9
					S188.1,93.6,202.2,112.9z"/>
				<path class="st15" d="M201.2,72.3c-1.1-6.2-7-10.4-13.2-9.3s-10.4,7-9.3,13.2c1.1,6.2,7,10.4,13.2,9.3l0,0
					C198.1,84.4,202.3,78.5,201.2,72.3z"/>
				<path class="st15" d="M212.7,109.2c-0.7-3.9,1.9-7.5,5.8-8.2c3.9-0.7,7.5,1.9,8.2,5.8l0,0l0,0c0.7,3.9-1.9,7.5-5.8,8.2
					c-0.4,0.1-0.8,0.1-1.2,0.1C216.3,115.1,213.3,112.6,212.7,109.2z M226.1,106.9c-0.6-3.5-4-5.9-7.5-5.3s-5.9,4-5.3,7.5
					s4,5.9,7.5,5.3S226.7,110.4,226.1,106.9z"/>
				<path class="st15" d="M233.2,105.7c-0.7-3.9,1.9-7.5,5.8-8.2c3.8-0.7,7.5,1.9,8.2,5.7l0,0l0,0c0.7,3.8-1.8,7.5-5.6,8.3
					c-3.8,0.7-7.5-1.8-8.3-5.6C233.2,105.8,233.2,105.7,233.2,105.7z M239.1,98c-3.5,0.6-5.9,4-5.3,7.5l0,0c0.6,3.5,4,5.9,7.5,5.3
					c1.7-0.3,3.2-1.3,4.2-2.7c1-1.4,1.4-3.2,1.1-4.9l0,0c-0.5-3.1-3.2-5.4-6.4-5.4C239.8,97.9,239.4,98,239.1,98L239.1,98z"/>
				<path class="st15" d="M226.6,107.1c3.6-3.1,6.6-1.3,6.8-1.2l0.3-0.5c0,0-3.5-2.1-7.4,1.2L226.6,107.1z"/>
				
					<rect x="201.6" y="109.1" transform="matrix(0.9945 -0.1047 0.1047 0.9945 -10.3155 22.3004)" class="st15" width="11.3" height="0.6"/>
				<path class="st11" d="M207.2,111.2c-0.5-0.8-1.2-1.3-2.1-1.6c-1.8-0.6-4.9-1.1-6.8,1.1c-2.8,3.3,3.9,10.9,9.7,6.4
					C208,117.1,209.6,115.3,207.2,111.2z"/>
				<path class="st7" d="M239.2,117.1c0,0-3.2-1.3-4.2-0.8c-0.7,0.4-1.2,1.1-1.4,1.9c-0.5-0.7-1.4-1.1-2.2-1
					c-1.4,0.2-5.4,3.5-5.4,3.5s5.2,5,9.2,3.6S239.2,117.1,239.2,117.1L239.2,117.1z"/>
				<path class="st4" d="M225.8,120.7c4.5-1,9-2.2,13.3-3.6c0,0-1.7,4.6-4.9,5.2S225.8,120.7,225.8,120.7z"/>
				<path class="st19" d="M212,149.2c0,0-2.2-9.3,4-9.4c6.3,3.1,13.7,2.8,19.7-0.6c0,0,4.2-0.1,3.8,7.9c0,0,25.4,7.6,33.8,13.8
					s19.9,44.7,23.3,73.9c3.1,26.4-2.6,51.9-7.5,63.7L279,297c0,0-4.7-4.2-5.7-37.6c-0.7-24.6-2.9-20.9-2.9-20.9s2.1,18.4-4,28.1
					l-68.4,2.1c0,0-8.8-4.3-14.4-36.8c0,0-15.9-7-13.3-40.1C172.6,163.1,191.4,155.4,212,149.2z"/>
				<path class="st15" d="M291.4,203l-43.6-7.4c-0.4-0.1-0.8,0.2-0.9,0.6l0,0l-10.3,60.7c-0.1,0.4,0.2,0.8,0.6,0.9l43.6,7.4
					c0.4,0.1,0.8-0.2,0.9-0.6l0,0l10.3-60.7C292.1,203.4,291.8,203.1,291.4,203z"/>
				
					<rect x="267.7" y="189.9" transform="matrix(0.1673 -0.9859 0.9859 0.1673 28.2187 431.7019)" class="st20" width="3.9" height="18.5"/>
				<path class="st20" d="M273,197.7c0.3-1.7-0.8-3.2-2.5-3.5s-3.2,0.8-3.5,2.5s0.8,3.2,2.5,3.5C271.1,200.5,272.7,199.4,273,197.7
					L273,197.7z"/>
				<path class="st6" d="M266.5,266.4c0,0,13.5,10.1,16.1,60.7s-14.3,188.4-14.3,188.4L239,517c0,0,3.5-184.5-1.1-185.1
					S202.8,516,202.8,516l-26.8-1.6c0,0-2.9-183.1,22-246.1L266.5,266.4z"/>
				<path class="st8" d="M258.5,226.4c0,0,7.6-8.7,11-11.2s4.9-7.5,6.9-6.2s-2.1,8.5-2.1,8.5s8.6-1.4,11.1-2.2s7.5-1.1,8.3,0.7
					s-11.9,5-11.9,5s7.5-1.3,7.8,0.9c0.3,1.9-8.4,4.6-8.4,4.6c2.3-0.6,4.7-1,7.1-1.2c1.5,0.1,2.9,2.1-1,3.9
					c-1.7,0.9-3.5,1.6-5.4,2.1c1.8-0.3,3.6-0.4,5.4-0.4c1,0.2,2.3,2.4-1.2,3.3c-6.1,1.7-18.5,4-25.9,2.3L258.5,226.4z"/>
				<path class="st19" d="M183.6,231.7c0,0,40.4,27.8,80.8-10.8l-3.7-13c0,0-51.7,6.4-61-20.8L183.6,231.7z"/>
				<path class="st15" d="M215,241.3c7.5,0,14.9-1.3,22-3.6c0.1,0,0.2-0.2,0.2-0.4l0,0c-0.1-0.1-0.2-0.2-0.4-0.2
					c-32.3,10.6-52.9-5.4-53.1-5.6c-0.1-0.1-0.3-0.1-0.4,0l0,0c-0.1,0.1-0.1,0.3,0,0.4C183.5,232.1,195.3,241.3,215,241.3z"/>
				<path class="st15" d="M239.6,208.8c1.4,0,2.3-0.1,2.3-0.1c0.2,0,0.3-0.1,0.3-0.3s-0.1-0.3-0.3-0.3l0,0c-0.4,0-35.4,2-40.7-21.1
					c0-0.2-0.2-0.3-0.4-0.2c-0.1,0-0.2,0.2-0.2,0.3C205.2,207.2,231.5,208.8,239.6,208.8z"/>
				<polygon class="st5" points="837.7,271.6 844.2,523.5 824.5,522.8 778.9,335.6 755.2,525.5 734.5,523.5 719.6,270.8 
					751.3,246.6 				"/>
				<path class="st7" d="M754.7,91.5c0,0-2-3.1-3.6-1.8c-4.1,3.1,0,7.3,2.7,8.2L754.7,91.5z"/>
				<path class="st8" d="M753.9,80.2L753.9,80.2c0-0.3,0-0.7,0-1c0-13.8,11.2-25,25-25s25,11.2,25,25c0,3.6-0.8,7.2-2.3,10.5
					c-2.3,5.8-4.4,10.8-6.6,15c-3.6,6.9-4.8,14.7-3.5,22.3l1,6c-15.4,8.1-22.3,0.4-22.3,0.4l-0.2-11c0-1.4-1.2-2.6-2.6-2.7l0,0
					C748.2,118.3,753.8,88.8,753.9,80.2z"/>
				<path class="st15" d="M780.6,92.6c0-1.3,1-2.3,2.3-2.3s2.3,1,2.3,2.3s-1,2.3-2.3,2.3l0,0C781.7,94.9,780.6,93.9,780.6,92.6
					L780.6,92.6z"/>
				<path class="st15" d="M760.1,89.1c0-1.3,1.1-2.3,2.3-2.3s2.3,1.1,2.3,2.3c0,1.3-1.1,2.3-2.3,2.3
					C761.2,91.4,760.1,90.4,760.1,89.1z"/>
				<path class="st15" d="M787.8,89.9c0.8,0,1.4-0.6,1.3-1.4c0-0.2-0.1-0.4-0.2-0.6c-1.2-2-4.7-5-9.9-2.4c-0.7,0.3-1,1.1-0.7,1.8
					c0.3,0.7,1.1,1,1.8,0.7c0,0,0,0,0.1,0c4.3-2.1,6.3,1.2,6.4,1.3C786.9,89.7,787.4,89.9,787.8,89.9z"/>
				<path class="st15" d="M766.1,86.1c0.2,0,0.5-0.1,0.7-0.2c0.6-0.4,0.9-1.2,0.5-1.8l0,0c-1.2-2-4.7-5-9.9-2.4
					c-0.7,0.3-1,1.1-0.8,1.8c0.3,0.7,1.1,1,1.8,0.8c0.1,0,0.1-0.1,0.2-0.1c4.3-2.1,6.3,1.2,6.4,1.3
					C765.2,85.8,765.6,86.1,766.1,86.1z"/>
				<polygon class="st15" points="806,81.3 799.1,98.1 794.6,97.2 792,75.4 				"/>
				<path class="st11" d="M793.9,96.6c0.4-0.8,1.1-1.4,2-1.8c1.7-0.7,4.8-1.4,6.8,0.7c3,3.1-3.2,11.2-9.2,7.1
					C793.5,102.7,791.7,100.9,793.9,96.6z"/>
				<path class="st7" d="M767.5,101.8c1.3,0.7,2.9,0.6,4.2-0.1c0.2-0.1,0.2-0.4,0.1-0.6c-0.1-0.2-0.4-0.2-0.6-0.1
					c-1.5,0.8-3.3,0.5-4.5-0.7c-0.4-0.3-0.5-0.6-0.5-0.8s0.3-0.6,0.8-1.1c2-2,3.2-4.6,3.4-7.3c0-0.2-0.2-0.4-0.4-0.4
					s-0.4,0.1-0.4,0.3c-0.2,2.6-1.4,5-3.2,6.9c-0.6,0.6-1,1.1-1,1.7c0.1,0.5,0.4,1,0.8,1.4C766.6,101.3,767.1,101.6,767.5,101.8z"/>
				<path class="st15" d="M757.9,70.5c0,0-3.6,2.5-4.6,17.6c0,0-1.1-16.9,0.8-18.7S757.9,70.5,757.9,70.5z"/>
				<path class="st4" d="M793.7,129.3h-26.4l-10.2,44.2v84.8c0,0,24.2,11.7,56.1-3.6l-9.3-99.3L793.7,129.3z"/>
				<path class="st6" d="M793.7,129.3c0,0,39.8,16.9,47.6,27.7s31.3,57.7,20.5,153.3h-21.4l-0.5-9.9l-39.7,3.9L793.7,129.3z"/>
				<path class="st6" d="M767.3,129.3c0,0-39.8,16.9-47.6,27.7s-31.3,57.7-20.4,153.3h22.4l-0.5-9.9l39.7,3.9L767.3,129.3z"/>
				<path class="st21" d="M839.7,301.5c-0.4,0-0.7-0.3-0.7-0.6c0-0.8-5.1-78.9-15.8-112.7c-0.1-0.4,0.2-0.8,0.5-0.8
					c0.3-0.1,0.7,0.1,0.8,0.4c10.7,34,15.8,112.3,15.9,113.1C840.5,301.2,840.2,301.5,839.7,301.5L839.7,301.5z"/>
				<path class="st21" d="M721.3,300.6L721.3,300.6c-0.4,0-0.7-0.3-0.7-0.7l0,0c0.1-3.8,3.6-92,10.7-112.2c0.1-0.4,0.5-0.5,0.9-0.4
					l0,0c0.4,0.1,0.5,0.5,0.4,0.9C725.5,208.2,722,299,722,300C722,300.3,721.6,300.6,721.3,300.6z"/>
				<polygon class="st10" points="785.2,134.3 780.5,142.1 791,251.5 779.1,276.4 767,252.4 775,141.5 771.6,133.6 780.7,130.2 				
					"/>
				<polygon class="st4" points="793.7,129.3 791.8,125 779.3,129.3 769.1,124.6 767.3,129.3 769.5,137.4 778.9,131.3 788,138 				
					"/>
				<path class="st15" d="M804.2,57.5c-1-1.3-2.4-2.4-3.9-3.1c-3.7-1.7-8-0.2-12.1-0.4c-6.1-0.2-11.5-3.9-17.6-4.7
					c-3.3-0.3-6.7-0.2-10,0.4c-0.7,0-1.4,0.2-2,0.5c-0.7,0.5-1.3,1.1-1.7,1.9c-1.2,2.2-2.2,4.6-4.4,5.9c-2.7,1.6-6.4,0.8-8.8,2.7
					c-2.6,2.1-2.3,6.1-1.7,9.4c0.1,0.6,0.3,1.3,0.6,1.8c0.6,0.7,1.4,1.1,2.3,1.3c3.1,0.8,6.4,0.7,9.4-0.2c3-0.9,5.8-2.7,9-2.7
					c3.9-0.1,7.3,2.3,10.8,4c2.4,1.2,5,2,7.6,2.5c3.2,0.6,6.5,0.7,9.6,1.7c5.3,1.7,13,8.5,15.7,0.8C809.5,72.7,808.8,63,804.2,57.5z
					"/>
				<polygon class="st22" points="809.2,136.4 801.4,168.6 809.2,171.9 797.7,238.7 793.7,129.3 				"/>
				<polygon class="st22" points="751.8,136.4 759.6,168.6 751.8,171.9 763.3,238.7 767.3,129.3 				"/>
				<path class="st4" d="M775.8,106.2l-13.2-0.8c0,0-1.4,5.8,5.4,6.4C771.7,112.3,775.2,109.8,775.8,106.2z"/>
				<path class="st6" d="M408,199.9c21.9,31.9,45.3,101.3,45.3,101.3l-16.2,7.1c0,0-15.2-29-21.4-39.2c-6.2-10.2-24.8-32-24.8-32
					l22.6,68.6L384,316.1c0,0-9.1-36.3-14.7-53.7c-5.6-17.4-25.4-119.9-25.4-119.9C376.3,151.7,386.1,168,408,199.9z"/>
				<polygon class="st22" points="358.2,144.8 356.4,177.9 364.7,179.7 365.5,247.5 341.7,140.7 				"/>
				<polygon class="st22" points="293.4,155.7 306,186.3 298.8,190.7 320.5,255 307.6,146.3 				"/>
			</g>
		</g>
	</g>
</g>
</svg>
